<svg id="Layer_2" data-name="Layer 2" xmlns="http://www.w3.org/2000/svg" viewBox="0 0 923.14 306.24"><defs><style>.cls-1{fill:#7b9a3d;}.cls-2{fill:#fff;}.cls-3,.cls-4{fill:none;stroke:#32348c;stroke-linecap:round;stroke-width:3.87px;}.cls-3{stroke-linejoin:round;}.cls-4{stroke-miterlimit:10;}.cls-5{fill:#f2c43e;}.cls-6{fill:#32348c;}.cls-7{fill:#2a6ebb;}.cls-8{fill:#b7a66d;}.cls-9{fill:#3e647e;}.cls-10{fill:#ffb300;}</style></defs><path class="cls-1" d="M48.53,36.12H190.61a12.53,12.53,0,0,1,12.53,12.53V257.58a12.54,12.54,0,0,1-12.54,12.54H48.53A12.54,12.54,0,0,1,36,257.58V48.66A12.54,12.54,0,0,1,48.53,36.12Z"/><path class="cls-2" d="M58.79,252.79a4.6,4.6,0,1,0,0,6.86v1.66a6.1,6.1,0,0,1-2.94.78A5.8,5.8,0,0,1,50,256.31a5.89,5.89,0,0,1,6-5.9,5.41,5.41,0,0,1,2.82.76Z"/><path class="cls-2" d="M62,259.05l-1.28,2.8h-1.5l5.35-11.68L70,261.85h-1.5l-1.28-2.8Zm2.57-5.82-2,4.54h4Z"/><polygon class="cls-2" points="70.76 250.11 79.17 258.93 79.17 250.65 80.57 250.65 80.57 262.31 72.16 253.5 72.16 261.86 70.76 261.86 70.76 250.11"/><path class="cls-2" d="M90.72,252.79a4.6,4.6,0,1,0,0,6.86v1.66a6.1,6.1,0,0,1-2.94.78,5.8,5.8,0,0,1-5.85-5.78,5.89,5.89,0,0,1,6-5.9,5.44,5.44,0,0,1,2.83.76Z"/><polygon class="cls-2" points="92.38 250.65 98.4 250.65 98.4 251.92 93.78 251.92 93.78 255.06 98.27 255.06 98.27 256.34 93.78 256.34 93.78 260.58 98.4 260.58 98.4 261.85 92.38 261.85 92.38 250.65"/><path class="cls-2" d="M107.09,261.85H105.4l-3.3-4.74h-.58v4.74h-1.4v-11.2h1.69a5.87,5.87,0,0,1,3,.52,3.08,3.08,0,0,1,1.47,2.67,3,3,0,0,1-2.69,3.14Zm-5.57-5.9H102c1.43,0,3-.26,3-2s-1.67-2-3-2h-.37Z"/><path class="cls-2" d="M120.64,252.79a4.6,4.6,0,1,0,0,6.86v1.66a6.1,6.1,0,0,1-2.94.78,5.8,5.8,0,0,1-5.85-5.78,5.89,5.89,0,0,1,6-5.9,5.41,5.41,0,0,1,2.82.76Z"/><path class="cls-2" d="M123.89,259.05l-1.28,2.8h-1.5l5.35-11.68,5.35,11.68h-1.5l-1.28-2.8Zm2.57-5.82-2,4.54h4Z"/><polygon class="cls-2" points="134.65 254.45 134.62 254.45 133.31 261.85 131.87 261.85 134.16 250.17 138.01 259 141.86 250.17 144.15 261.85 142.7 261.85 141.4 254.45 141.37 254.45 138.01 262.09 134.65 254.45"/><path class="cls-2" d="M146.79,261.86h-1.4V250.65H147c3.45,0,4.52,1.18,4.52,3.24,0,2.36-1.8,3.27-3.92,3.27h-.8Zm0-6h.44c1.43,0,3-.27,3-2s-1.66-2-3-2h-.37Z"/><path class="cls-2" d="M154.33,259.05l-1.27,2.8h-1.51l5.36-11.68,5.35,11.68h-1.51l-1.27-2.8Zm2.58-5.82-2,4.54h4Z"/><rect class="cls-2" x="163.14" y="250.65" width="1.4" height="11.21"/><path class="cls-2" d="M176.85,256.21v.44a5.21,5.21,0,0,1-5.31,5.44,5.84,5.84,0,0,1,.15-11.68,5.87,5.87,0,0,1,4.56,2.17l-1,.94a4.42,4.42,0,0,0-8,2.72,4.57,4.57,0,0,0,4.36,4.57,3.76,3.76,0,0,0,3.67-3.33h-2.9v-1.27Z"/><polygon class="cls-2" points="178.09 250.11 186.5 258.93 186.5 250.65 187.9 250.65 187.9 262.31 179.49 253.5 179.49 261.86 178.09 261.86 178.09 250.11"/><polyline class="cls-3" points="57.83 166.55 68.75 160.15 76.05 146.11 83.11 149.44 82.11 163.69 78.74 177.68"/><polyline class="cls-4" points="146.25 125.87 134.78 131.41 124.92 127.14"/><polyline class="cls-3" points="83.05 125.57 96.97 131.41 107.96 128.64"/><path class="cls-5" d="M158.51,157.22,139.3,171.39a400.71,400.71,0,0,1-21.82-36.78c-.75,1.29-1.44,2.48-2.12,3.68-6.76,12-14.13,23.53-21.89,34.86-.27.4-.42,1-1.23.68-5.91-2.24-11.84-4.44-17.87-6.69,1.33-1.37,2.61-2.66,3.84-4A119,119,0,0,0,93.53,142c4.94-8.54,9.51-17.29,14.26-25.95a2,2,0,0,0,.08-1.93,132.38,132.38,0,0,1-8.08-25.25c-.52-2.67.22-5.16,1.11-7.61a63.7,63.7,0,0,1,6.31-12.15,2.07,2.07,0,0,1,.75-.72c3.43-1.68,7-2.76,10.88-2.21,2.33.33,4.61.94,6.9,1.48a2.28,2.28,0,0,1,1.23.79,60.38,60.38,0,0,1,8.67,15.78,14.58,14.58,0,0,1-.11,9.14,153.87,153.87,0,0,1-7.77,20.7,2.12,2.12,0,0,0,.08,2.15,234.34,234.34,0,0,0,17.69,28.41c3,4.05,6.25,8,10.4,11,.77.56,1.61,1,2.58,1.62m-41.36-62h.32l6.11-15.38c-1-.4-1.79-.76-2.62-1.06a10.93,10.93,0,0,0-9.5.82c-.43.24-.76.42-.49,1.06,2.08,4.85,4.12,9.71,6.18,14.57"/><path class="cls-6" d="M148.15,116.54a7.18,7.18,0,1,1-7.18-7.18,7.17,7.17,0,0,1,7.18,7.18"/><path class="cls-6" d="M97,116.54a7.19,7.19,0,1,1-7.19-7.18A7.18,7.18,0,0,1,97,116.54"/><polyline class="cls-3" points="147.09 133.81 135.62 139.34 125.75 135.08"/><polyline class="cls-3" points="83.11 132.93 96.14 139.34 107.12 136.58"/><path class="cls-4" d="M166,151c-.27.18,2.86,5.85,15.33,13.72"/><line class="cls-4" x1="155.57" y1="157.83" x2="157.6" y2="179.03"/><polygon class="cls-6" points="82.61 126.17 89.73 128.49 82.61 150.97 74.48 149.08 82.61 126.17"/><polygon class="cls-3" points="82.61 126.17 89.73 128.49 82.61 150.97 74.48 149.08 82.61 126.17"/><path class="cls-6" d="M147.85,122.94l-.1-.09a.12.12,0,0,0-.05,0h0a1.62,1.62,0,0,0-1-.37,1.67,1.67,0,0,0-.59.11h0a1.62,1.62,0,0,0-.36.21c-1.9,1.06-4.73,2.67-4.73,2.67l2.65,33.92c25.77,2.12,29.78-16.89,29.78-16.89-9.59-4.23-21-14.9-25.55-19.5"/><rect class="cls-2" x="50.44" y="244.56" width="138.25" height="1.41"/><rect class="cls-2" x="50.44" y="212.57" width="138.25" height="1.41"/><path class="cls-2" d="M60.19,204.35a4.64,4.64,0,0,1-9.28,0,4.64,4.64,0,0,1,9.28,0m-1.1,0a3.54,3.54,0,1,0-7.08,0,3.54,3.54,0,1,0,7.08,0"/><path class="cls-2" d="M62.37,208.79H61.26v-8.87h1.27c2.73,0,3.57.94,3.57,2.57,0,1.86-1.42,2.58-3.1,2.58h-.63Zm0-4.71h.35c1.13,0,2.35-.21,2.35-1.62s-1.32-1.55-2.41-1.55h-.29Z"/><polygon class="cls-2" points="69.47 208.79 68.36 208.79 68.36 200.93 66.26 200.93 66.26 199.92 71.57 199.92 71.57 200.93 69.47 200.93 69.47 208.79"/><rect class="cls-2" x="72.4" y="199.92" width="1.11" height="8.86"/><polygon class="cls-2" points="76.67 202.93 76.65 202.93 75.61 208.79 74.47 208.79 76.28 199.55 79.33 206.53 82.37 199.55 84.18 208.79 83.04 208.79 82.01 202.93 81.98 202.93 79.33 208.97 76.67 202.93"/><rect class="cls-2" x="85.14" y="199.92" width="1.11" height="8.86"/><path class="cls-2" d="M91.84,201.6a1.52,1.52,0,0,0-1.42-.83A1.4,1.4,0,0,0,88.93,202c0,.69.69,1.06,1.24,1.27l.63.24c1.26.5,2.2,1.19,2.2,2.67a2.79,2.79,0,0,1-5.57.28l1.12-.23a1.65,1.65,0,0,0,1.71,1.68,1.67,1.67,0,0,0,1.64-1.73c0-1-.77-1.36-1.53-1.68l-.61-.26c-1-.43-1.93-1-1.93-2.24a2.42,2.42,0,0,1,2.61-2.3,2.54,2.54,0,0,1,2.28,1.34Z"/><polygon class="cls-2" points="96.6 208.79 95.49 208.79 95.49 200.93 93.39 200.93 93.39 199.92 98.7 199.92 98.7 200.93 96.6 200.93 96.6 208.79"/><rect class="cls-2" x="102.93" y="199.92" width="1.11" height="8.86"/><polygon class="cls-2" points="105.59 199.5 112.24 206.47 112.24 199.92 113.35 199.92 113.35 209.15 106.7 202.18 106.7 208.79 105.59 208.79 105.59 199.5"/><polygon class="cls-2" points="117.31 208.79 116.21 208.79 116.21 200.93 114.1 200.93 114.1 199.92 119.42 199.92 119.42 200.93 117.31 200.93 117.31 208.79"/><polygon class="cls-2" points="120.29 199.92 125.05 199.92 125.05 200.93 121.39 200.93 121.39 203.41 124.94 203.41 124.94 204.43 121.39 204.43 121.39 207.78 125.05 207.78 125.05 208.79 120.29 208.79 120.29 199.92"/><path class="cls-2" d="M131.92,208.79h-1.34L128,205h-.46v3.75h-1.1v-8.87h1.34a4.69,4.69,0,0,1,2.34.41,2.46,2.46,0,0,1,1.16,2.12,2.41,2.41,0,0,1-2.12,2.48Zm-4.41-4.67h.36c1.13,0,2.35-.21,2.35-1.62s-1.32-1.59-2.41-1.59h-.3Z"/><polygon class="cls-2" points="132.69 199.5 139.34 206.47 139.34 199.92 140.44 199.92 140.44 209.15 133.79 202.18 133.79 208.79 132.69 208.79 132.69 199.5"/><path class="cls-2" d="M143.28,206.56l-1,2.23h-1.19l4.23-9.24,4.24,9.24h-1.19l-1-2.23Zm2-4.59-1.57,3.58h3.15Z"/><polygon class="cls-2" points="151.73 208.79 150.63 208.79 150.63 200.93 148.52 200.93 148.52 199.92 153.84 199.92 153.84 200.93 151.73 200.93 151.73 208.79"/><rect class="cls-2" x="154.67" y="199.92" width="1.11" height="8.86"/><path class="cls-2" d="M166.1,204.35a4.65,4.65,0,0,1-9.29,0,4.65,4.65,0,0,1,9.29,0m-1.11,0a3.54,3.54,0,1,0-7.07,0,3.54,3.54,0,1,0,7.07,0"/><polygon class="cls-2" points="167.06 199.5 173.72 206.47 173.72 199.92 174.82 199.92 174.82 209.15 168.17 202.18 168.17 208.79 167.06 208.79 167.06 199.5"/><path class="cls-2" d="M177.65,206.56l-1,2.23h-1.18l4.23-9.24,4.23,9.24h-1.19l-1-2.23Zm2-4.59-1.58,3.58h3.15Z"/><polygon class="cls-2" points="185.77 207.78 188.46 207.78 188.46 208.78 184.66 208.78 184.66 199.92 185.77 199.92 185.77 207.78"/><path class="cls-2" d="M64.73,224.51a5.58,5.58,0,0,0-4.27-2.06c-3.64,0-5.72,3.35-5.72,6.7s2.16,6.54,5.69,6.54a5.92,5.92,0,0,0,4.3-2.06v4.51a10.15,10.15,0,0,1-4.4,1.16c-5.46,0-9.51-4.72-9.51-10.08s3.89-10.38,9.59-10.38A9,9,0,0,1,64.73,220Z"/><polygon class="cls-2" points="77.78 227.01 77.78 219.35 81.56 219.35 81.56 238.78 77.78 238.78 77.78 230.1 70.77 230.1 70.77 238.78 66.98 238.78 66.98 219.35 70.77 219.35 70.77 227.01 77.78 227.01"/><rect class="cls-2" x="84.09" y="219.35" width="3.79" height="19.43"/><polygon class="cls-2" points="94.17 235.49 99.53 235.49 99.53 238.78 90.38 238.78 90.38 219.35 94.17 219.35 94.17 235.49"/><path class="cls-2" d="M100.48,219.35h5.42c5.61,0,9.37,4.2,9.37,9.75s-3.86,9.68-9.4,9.68h-5.39Zm3.79,16.13h.62c4.66,0,6.47-2.57,6.47-6.41,0-4.23-2.17-6.42-6.47-6.42h-.62Z"/><polygon class="cls-2" points="127.67 227.01 127.67 219.35 131.46 219.35 131.46 238.78 127.67 238.78 127.67 230.1 120.67 230.1 120.67 238.78 116.88 238.78 116.88 219.35 120.67 219.35 120.67 227.01 127.67 227.01"/><path class="cls-2" d="M133.06,229c0-5.43,3.95-10.2,9.61-10.2s9.62,4.77,9.62,10.2-3.95,10.26-9.62,10.26-9.61-4.69-9.61-10.26m3.92-.15c0,2.94,2.47,6.67,5.69,6.67s5.7-3.73,5.7-6.67c0-3.15-2.37-6.31-5.7-6.31s-5.69,3.16-5.69,6.31"/><path class="cls-2" d="M153,229c0-5.43,3.94-10.2,9.61-10.2s9.61,4.77,9.61,10.2-3.94,10.26-9.61,10.26S153,234.61,153,229m3.92-.15c0,2.94,2.47,6.67,5.69,6.67s5.69-3.73,5.69-6.67c0-3.15-2.37-6.31-5.69-6.31s-5.69,3.16-5.69,6.31"/><path class="cls-2" d="M173.78,219.35h5.42c5.61,0,9.37,4.2,9.37,9.75s-3.86,9.68-9.4,9.68h-5.39Zm3.79,16.13h.62c4.66,0,6.47-2.57,6.47-6.41,0-4.23-2.17-6.42-6.47-6.42h-.62Z"/><path class="cls-7" d="M446.47,233.46c0,9.81-.43,14.08-2.78,18.55C439,261.4,426.42,270.15,404,270.15c-17.71,0-30.08-4.91-36.9-14.08-4.27-6.19-5.55-9-5.55-23.89V155.39h29.22V229c0,10.45,3.2,17.28,13.44,17.28,10.45,0,13.23-5.76,13.23-16.86V155.6h29Z"/><path class="cls-7" d="M509.39,268.44V220.87H486.14v47.36h-29V155.6h29V197h23.25V155.6h29V268.44Z"/><path class="cls-7" d="M603.88,268.44,584,229.19a149.85,149.85,0,0,1-8.74-21.11,212,212,0,0,1,1.7,28.58v31.78H549.49V155.6h27.73l20.47,38.61a171.31,171.31,0,0,1,9.39,21.54c-.85-6.61-1.07-17.7-1.07-25.17v-35h27.52V268.44Z"/><path class="cls-8" d="M313.58,177.57c-.64,5.34-2.56,8.75-1.07,16.21,2.35,12.8,10.67,12.16,10.88,25.81a.46.46,0,0,0,.43.43c.21,0,.21,0,.42-.21,4.27-6.4,6.83-14.93,7.26-24.32a39.78,39.78,0,0,0-15.15-32.42s-.21-.21,0-.21c0-.22.22-.22.22,0,14.5,9.59,21.54,25.38,18.13,42.23C332.56,216,327,224.93,318.91,230a28.86,28.86,0,0,1-9.6,4.06c-.21,0-.21.42,0,.64.64.21,1.28.64,1.92.85a.4.4,0,0,0,.64,0,61.58,61.58,0,0,1,23.47-8.53c3-.43,9.17-1.49,8.53-6-.43-1.71-.64-3.2-1.07-4.91s1.28-2.35,2.13-3c.86-1.49.22-2.56-1.06-3.41-.43-.21-.43-.64-.21-.64A2.22,2.22,0,0,0,346,206.8c-.64-1.5-2.56-3.84-.85-6,.85-1.28,1.28-1.49,3-1.92a2.26,2.26,0,0,0,1.5-3.41c-3.2-4.05-5.55-6.83-8.75-10.88-1.49-3,2.35-6.82-1.06-10.45-8.54-9-19.84-16.64-35.63-18.34a.45.45,0,0,0-.42.42c.64,3.63,3.2,6.19,5.54,8.32a15.06,15.06,0,0,1,4.27,13"/><path class="cls-8" d="M343.44,248.6a.41.41,0,0,0-.21-.64c-3.41-1.28-6.83-.21-10,.64a13.93,13.93,0,0,1-13.43-2.77c-4.06-3.2-6.19-6.61-13.44-9.17-12.16-4.27-15.79,3.2-27.73-3.42-.21-.21-.43,0-.43.22v.42a47.08,47.08,0,0,0,17.28,18.35c11.3,6.82,23.68,7.46,35.41,3h.21v.22c-15.57,7.89-32.63,6-45.22-5.34-8.32-7.46-13.22-16.63-13.44-26.23a28.38,28.38,0,0,1,1.28-10.45c0-.22-.21-.43-.42-.22a7.29,7.29,0,0,1-1.71,1.07c-.21.21-.43.43-.21.64,0,10-1.71,21.76-6.4,32.42a4.38,4.38,0,0,0,.85,4.27c1.28,1.28,2.35,1.06,3.84,1.7,1.49.43,1.92,2.56,2.35,3.42a1.92,1.92,0,0,0,2.13.64h.21a2.56,2.56,0,0,0,1.07,1.92c.43.21,2.77-.43,3.41.64,1.07,1.7,0,4.69,2.14,5.33,3.19,0,7.25-1.49,10.87-.85,3.84.64,6.4,3.62,10.24,4.9a14.39,14.39,0,0,0,7.89.64c11.74-2.13,24.11-8.74,33.49-21.33"/><path class="cls-8" d="M243.62,236.44c.21.22.42.22.85.22,2.77-2.35,3.63-6,4.27-9.17a14.77,14.77,0,0,1,9-10.46c4.9-1.92,8.74-2.13,14.5-7.25,9.81-8.53,5.12-15.36,16.64-22.39.42-.22.42-.43.42-.64s-.21-.22-.42-.22a45.67,45.67,0,0,0-24.32,6,39.81,39.81,0,0,0-20.26,29.44c0,.21,0,.21-.22.21a.21.21,0,0,1-.21-.21c.85-17.49,11.09-31.57,27.09-37.11,10.45-3.63,20.9-3.2,29.22,1.28a27,27,0,0,1,8.32,6.39c.21.22.43,0,.43-.21,0-.64-.22-1.49-.22-2.13,0-.22-.21-.43-.42-.64a61.35,61.35,0,0,1-19-16.21c-1.92-2.35-5.54-6.61-9.38-4.48a19.5,19.5,0,0,0-3,3c-1.06,1.28-3.41.86-4.26.22a2.64,2.64,0,0,0-2.78,3c0,.43-.42.64-.42.43-.86-1.28-3.42-1.49-4.27,0-.21,1.07-1.28,3.63-3.2,2.35-2.13-1.71-4.26-1.5-5.33.21a76.5,76.5,0,0,1-5.55,10.45c-2.13,2.77-8.74,5.12-9.81,8.75-2.77,11.94-3.62,24.31,2.35,39.24"/><path class="cls-7" d="M668.3,163.71c0,4.48-3.42,8.1-9.82,8.1h-4.05v6c0,4.9.64,5.76,4.48,5.76v1.06H646.54v-1.06c3.84,0,4.48-.86,4.48-5.76V162c0-4.9-.64-5.54-4.48-5.54v-1.07H658.7C664.88,155.39,668.3,159,668.3,163.71Zm-4.06,0c0-3.41-1.92-6.4-5.76-6.4h-4.05v12.8h4.05C662.54,170.11,664.24,167.12,664.24,163.71Z"/><path class="cls-7" d="M683,172.88a1.83,1.83,0,0,1-1.7-1.71,1.52,1.52,0,0,0-1.5-1.7c-1.06,0-3.62,1.7-3.62,5.76V178c0,4.91.64,5.76,3.62,5.76v1.07H669.36v-1.07c3,0,3.63-.85,3.63-5.76v-2.35c0-4.9-.64-5.54-3.63-5.54v-1.28l6.19-1.28c.21.42.64,2.56.85,3.41a5.85,5.85,0,0,1,4.91-3.41c2.56,0,3.62,1.7,3.62,3C684.72,171.6,684.29,172.88,683,172.88Z"/><path class="cls-7" d="M686.85,184.61v-1.06c3,0,3.63-.86,3.63-5.76v-2.35c0-4.91-.64-5.55-3.63-5.55v-1.06l6.83-1.28v10.24c0,4.9.64,5.76,3.62,5.76v1.06ZM692,162.86a2.3,2.3,0,0,1-2.13-2.14,2.14,2.14,0,0,1,2.13-2.13,2.14,2.14,0,1,1,0,4.27Z"/><path class="cls-7" d="M712.66,167.55c4.06,0,6,3.2,6,7.25v3c0,4.9.64,5.76,3.63,5.76v1.06H711.6v-1.06c3,0,3.62-.86,3.62-5.76V175c0-3.2-1.06-5.12-3.84-5.12-2.56,0-5.33,2.14-5.33,4.91V178c0,4.91.43,5.76,3.2,5.76v1.07H699v-1.07c3,0,3.63-.85,3.63-5.76v-2.35c0-4.9-.64-5.54-3.63-5.54v-1.28l6.19-1.28c.21.42.64,2.56.85,3.41A8.7,8.7,0,0,1,712.66,167.55Z"/><path class="cls-7" d="M726.31,176.93c0,3.84,1.71,6.4,5.55,6.4a7.21,7.21,0,0,0,4.91-2.13l.85,1.07a9.43,9.43,0,0,1-6.83,3.2c-5.12,0-8.1-3.63-8.1-8.54,0-5.76,4.48-9.38,8.1-9.38,3.84,0,5.55,1.7,5.55,3.41a2,2,0,0,1-2.13,2.13,1.74,1.74,0,0,1-1.71-1.92c0-1.7-.85-2.13-1.71-2.13C728.23,169,726.31,172.45,726.31,176.93Z"/><path class="cls-7" d="M748.5,183.33a8.34,8.34,0,0,0,5.12-2.13l.85,1.07a10.85,10.85,0,0,1-7,3.2c-5.12,0-8.53-4.06-8.53-9a8.93,8.93,0,0,1,8.53-9c4.05,0,7.47,3.41,6.19,7.68h-11.1C741.88,179.71,743.8,183.33,748.5,183.33Zm1.92-9.81c.42-1.49-.22-3.84-3.42-3.84-1.92,0-3.62,1.49-4.26,3.84Z"/><path class="cls-7" d="M763,185.47c-3.2,0-4.9-3.42-4.9,0h-.86v-7h.86c0,2.13,1.7,5.33,5.11,5.33a2.46,2.46,0,0,0,2.56-2.56c0-1.28-1.06-2.13-2.56-3l-2.56-1.49a5.31,5.31,0,0,1-3-4.91,4.69,4.69,0,0,1,4.69-4.48c3.41,0,4,2.56,4,0h1.07v5.55h-1.07a3.75,3.75,0,0,0-3.84-4,2.07,2.07,0,0,0-2.34,2.13c0,1.07.85,1.71,2.77,3l2.13,1.28c2.14,1.28,3.2,3,3.2,4.69A5.1,5.1,0,0,1,763,185.47Z"/><path class="cls-7" d="M776.87,185.47c-3.2,0-4.91-3.42-4.91,0h-.85v-7H772c0,2.13,1.71,5.33,5.12,5.33a2.47,2.47,0,0,0,2.56-2.56c0-1.28-1.07-2.13-2.56-3l-2.56-1.49a5.3,5.3,0,0,1-3-4.91,4.7,4.7,0,0,1,4.7-4.48c3.41,0,4,2.56,4,0h1.06v5.55h-1.06a3.75,3.75,0,0,0-3.84-4,2.08,2.08,0,0,0-2.35,2.13c0,1.07.86,1.71,2.78,3l2.13,1.28c2.13,1.28,3.2,3,3.2,4.69A5.11,5.11,0,0,1,776.87,185.47Z"/><path class="cls-7" d="M652.3,219.81c0,4.9.64,5.76,4.48,5.76v1.06H646.33v-1.28c3.84,0,4.48-.85,4.48-5.76V204c0-4.9-.64-5.54-4.48-5.54v-1.07h7.89L664,221.09l9.81-23.68h7.25v1.07c-3.84,0-4.48.85-4.48,5.54v15.79c0,4.9.64,5.76,4.48,5.76v1.06H668.72v-1.28c3.84,0,4.48-.85,4.48-5.76V204l-9.6,23.25h-1.06L652.3,202.53Z"/><path class="cls-7" d="M695.6,227.06a3.06,3.06,0,0,1-3.2-2.77c-2.35,2.13-3.84,3-5.76,3a3.8,3.8,0,0,1-4-4.05c0-4.05,4.48-6,9.81-6.83,0-3.62-.43-5.12-3-5.12a2.55,2.55,0,0,0-2.56,2.35,1.52,1.52,0,0,1-1.49,1.71,1.69,1.69,0,0,1-1.71-1.71c0-2.35,3-3.84,5.76-3.84,4.48,0,6.4,1.92,6.4,6.61v7.26c0,1.28.43,1.92,1.07,1.92a2.51,2.51,0,0,0,1.28-.64l.64.85A7.75,7.75,0,0,1,695.6,227.06Zm-3.2-9.39c-4.48,1.07-6.4,2.56-6.4,4.91a2.41,2.41,0,0,0,2.13,2.56c1.07,0,2.14-.43,4.27-2.35Z"/><path class="cls-7" d="M713.73,214.69A1.85,1.85,0,0,1,712,213a1.52,1.52,0,0,0-1.49-1.71c-1.07,0-3.63,1.71-3.63,5.76v2.78c0,4.9.64,5.76,3.63,5.76v1.06H700.08v-1.28c3,0,3.62-.85,3.62-5.76v-2.34c0-4.91-.64-5.55-3.62-5.55v-1.07l6.18-1.28c.22.43.64,2.56.86,3.42a5.85,5.85,0,0,1,4.9-3.42c2.56,0,3.63,1.71,3.63,3S715.22,214.69,713.73,214.69Z"/><path class="cls-7" d="M724.82,226.63c6.4.64,8.32,3.41,8.32,6.4,0,4.05-3.63,6.4-8.11,6.4-7.89,0-10.87-6-5.12-9.17l.86.64c-3.84,4.48.64,6.61,4.26,6.61,2.78,0,5.76-1.49,5.76-3.84s-2.34-3-6.18-3.41-6.62-1.71-6.62-4.48c0-1.71,1.5-3.2,3.84-3.84a6.36,6.36,0,0,1-3.84-6,6.7,6.7,0,0,1,6.83-6.62,6.27,6.27,0,0,1,4.69,1.92,5.67,5.67,0,0,1,3.42-1.92c3.2,0,3.41,4.06,1.49,4.06-2.13.21-.85-2.14-2.77-2.14-.43,0-.86.22-1.5.86a6.33,6.33,0,0,1,1.28,3.84,6.88,6.88,0,0,1-6,6.61c-2.13.21-5.12.64-5.12,2.13C720.55,226,723.33,226.42,724.82,226.63Zm0-15.57c-2.35,0-3.41,2.13-3.41,5.12,0,2.77,1.06,4.91,3.41,4.91s3.41-2.14,3.41-4.91C728.23,213.19,727.17,211.06,724.82,211.06Z"/><path class="cls-7" d="M750.42,227.06a3.06,3.06,0,0,1-3.2-2.77c-2.35,2.13-3.84,3-5.76,3a3.8,3.8,0,0,1-4.05-4.05c0-4.05,4.47-6,9.81-6.83,0-3.62-.43-5.12-3-5.12a2.55,2.55,0,0,0-2.56,2.35,1.52,1.52,0,0,1-1.49,1.71,1.68,1.68,0,0,1-1.71-1.71c0-2.35,3-3.84,5.76-3.84,4.48,0,6.4,1.92,6.4,6.61v7.26c0,1.28.43,1.92,1.07,1.92a2.51,2.51,0,0,0,1.28-.64l.64.85A7.75,7.75,0,0,1,750.42,227.06Zm-3.2-9.39c-4.48,1.07-6.4,2.56-6.4,4.91a2.4,2.4,0,0,0,2.13,2.56c1.07,0,2.13-.43,4.27-2.35Z"/><path class="cls-7" d="M768.55,214.69a1.84,1.84,0,0,1-1.71-1.71,1.52,1.52,0,0,0-1.49-1.71c-1.07,0-3.63,1.71-3.63,5.76v2.78c0,4.9.64,5.76,3.63,5.76v1.06H754.9v-1.28c3,0,3.62-.85,3.62-5.76v-2.34c0-4.91-.64-5.55-3.62-5.55v-1.07l6.18-1.28c.21.43.64,2.56.85,3.42a5.88,5.88,0,0,1,4.91-3.42c2.56,0,3.63,1.71,3.63,3C770.25,213.62,769.83,214.69,768.55,214.69Z"/><path class="cls-7" d="M781.56,225.14a8.34,8.34,0,0,0,5.12-2.13l.85,1.06a10.8,10.8,0,0,1-7,3.2c-5.12,0-8.53-4.05-8.53-9a8.94,8.94,0,0,1,8.53-9c4,0,7.47,3.42,6.19,7.68H775.59C775,221.73,776.65,225.14,781.56,225.14Zm1.92-9.81c.42-1.5-.22-3.84-3.42-3.84-1.91,0-3.62,1.49-4.26,3.84Z"/><path class="cls-7" d="M788.6,211.91v-1.06c2.77-.64,3.84-2.77,4-6h1.49v5.33h4.06v1.7h-4.06v9.82c0,2.34.64,3.62,2.14,3.62a4.85,4.85,0,0,0,3-1.7l.86.85a6.9,6.9,0,0,1-4.91,2.77c-2.56,0-4.27-1.7-4.27-5.54v-9.82Z"/><path class="cls-7" d="M672.14,267.8a6.7,6.7,0,0,0-1.5-2.77,11.58,11.58,0,0,1-8.53,4.05c-7.89,0-14.08-7-14.08-15.36,0-8.53,6.4-15.36,14.08-15.36a11.59,11.59,0,0,1,8.53,4.06,4.38,4.38,0,0,0,1.5-2.78H673v10.67h-.85c-1.28-6.4-4.91-10.24-10-10.24-7.46,0-10,7.47-10,13.44s2.77,13.44,10,13.44c5.12,0,8.75-3.84,10-10H673v10.67h-.85Z"/><path class="cls-7" d="M689,268.87a3.06,3.06,0,0,1-3.2-2.78c-2.35,2.14-3.84,3-5.76,3a3.8,3.8,0,0,1-4-4.05c0-4.06,4.47-6,9.81-6.83,0-3.63-.43-5.12-3-5.12a2.54,2.54,0,0,0-2.56,2.35,1.52,1.52,0,0,1-1.49,1.7,1.68,1.68,0,0,1-1.71-1.7c0-2.35,3-3.84,5.76-3.84,4.48,0,6.4,1.92,6.4,6.61v7.25c0,1.28.43,1.92,1.07,1.92a2.43,2.43,0,0,0,1.28-.64l.64.86A5.16,5.16,0,0,1,689,268.87Zm-3.2-9.39c-4.48,1.07-6.4,2.77-6.4,4.91a2.4,2.4,0,0,0,2.13,2.56c1.07,0,2.13-.43,4.27-2.35Z"/><path class="cls-7" d="M706.05,251.37c4.05,0,6,3.2,6,7.26v3c0,4.91.64,5.76,3.63,5.76v1.07H705.2v-1.07c3,0,3.62-.85,3.62-5.76v-2.77c0-3.2-1.06-5.12-3.84-5.12-2.56,0-5.33,2.13-5.33,4.91v3c0,4.91.43,5.76,3.2,5.76v1.07H692.61v-1.07c3,0,3.63-.85,3.63-5.76v-2.34c0-4.91-.64-5.55-3.63-5.55v-1.07l6.19-1.28c.21.43.64,2.56.85,3.42A7.88,7.88,0,0,1,706.05,251.37Z"/><path class="cls-7" d="M719.7,260.76c0,3.84,1.71,6.4,5.55,6.4a7.17,7.17,0,0,0,4.9-2.13l.86,1.06a9.43,9.43,0,0,1-6.83,3.2c-5.12,0-8.1-3.62-8.1-8.53,0-5.76,4.47-9.39,8.1-9.39,3.84,0,5.55,1.71,5.55,3.42a2,2,0,0,1-2.14,2.13,1.74,1.74,0,0,1-1.7-1.92c0-1.71-.86-2.13-1.71-2.13C721.62,252.87,719.7,256.28,719.7,260.76Z"/><path class="cls-7" d="M741.88,267.16A8.32,8.32,0,0,0,747,265l.86.85a10.8,10.8,0,0,1-7,3.2c-5.12,0-8.53-4.05-8.53-9a8.93,8.93,0,0,1,8.53-9c4,0,7.46,3.41,6.18,7.68H735.91C735.27,263.53,737.19,267.16,741.88,267.16Zm1.92-10c.43-1.49-.21-3.84-3.41-3.84-1.92,0-3.62,1.5-4.26,3.84Z"/><path class="cls-7" d="M762.79,256.71a1.84,1.84,0,0,1-1.71-1.71,1.52,1.52,0,0,0-1.49-1.71c-1.07,0-3.63,1.71-3.63,5.76v2.56c0,4.91.64,5.76,3.63,5.76v1.07H749.14v-1.07c3,0,3.62-.85,3.62-5.76v-2.34c0-4.91-.64-5.55-3.62-5.55v-1.07l6.18-1.28c.22.43.64,2.56.86,3.42a5.85,5.85,0,0,1,4.9-3.42c2.56,0,3.63,1.71,3.63,3C764.71,255.43,764.28,256.71,762.79,256.71Z"/><path class="cls-7" d="M799.48,267.8A6.7,6.7,0,0,0,798,265a11.58,11.58,0,0,1-8.53,4.05c-7.89,0-14.08-7-14.08-15.36,0-8.53,6.4-15.36,14.08-15.36a11.59,11.59,0,0,1,8.53,4.06,4.38,4.38,0,0,0,1.5-2.78h.85v10.67h-.85c-1.28-6.4-4.91-10.24-10-10.24-7.47,0-10,7.47-10,13.44s2.77,13.44,10,13.44c5.12,0,8.75-3.84,10-10h.85v10.67h-.85Z"/><path class="cls-7" d="M812.91,267.16A8.32,8.32,0,0,0,818,265l.86,1.06a10.8,10.8,0,0,1-7,3.2c-5.12,0-8.54-4.05-8.54-9a8.94,8.94,0,0,1,8.54-9c4,0,7.46,3.42,6.18,7.68H806.94C806.3,263.53,808,267.16,812.91,267.16Zm1.92-10c.43-1.49-.21-3.84-3.41-3.84-1.92,0-3.63,1.5-4.27,3.84Z"/><path class="cls-7" d="M833.6,251.37c4.06,0,6,3.2,6,7.26v3c0,4.91.64,5.76,3.62,5.76v1.07H832.75v-1.07c3,0,3.63-.85,3.63-5.76v-2.77c0-3.2-1.07-5.12-3.84-5.12-2.56,0-5.34,2.13-5.34,4.91v3c0,4.91.43,5.76,3.2,5.76v1.07h-10v-1.07c3,0,3.62-.85,3.62-5.76v-2.34c0-4.91-.64-5.55-3.62-5.55v-1.07l6.18-1.28c.22.43.64,2.56.86,3.42A7.77,7.77,0,0,1,833.6,251.37Z"/><path class="cls-7" d="M842.56,253.93v-1.06c2.77-.64,3.84-2.78,4.05-6h1.5v5.33h4v1.7h-4v9.82c0,2.34.64,3.62,2.13,3.62a4.89,4.89,0,0,0,3-1.7l.85.85a6.89,6.89,0,0,1-4.91,2.77c-2.56,0-4.26-1.7-4.26-5.54v-9.82Z"/><path class="cls-7" d="M868.8,256.71a1.84,1.84,0,0,1-1.71-1.71,1.52,1.52,0,0,0-1.49-1.71c-1.07,0-3.63,1.71-3.63,5.76v2.56c0,4.91.64,5.76,3.63,5.76v1.07H855.15v-1.07c3,0,3.62-.85,3.62-5.76v-2.34c0-4.91-.64-5.55-3.62-5.55v-1.07l6.18-1.28c.22.43.64,2.56.86,3.42a5.85,5.85,0,0,1,4.9-3.42c2.56,0,3.63,1.71,3.63,3C870.5,255.43,870.08,256.71,868.8,256.71Z"/><path class="cls-7" d="M881.17,267.16a8.34,8.34,0,0,0,5.12-2.13l.85,1.06a10.8,10.8,0,0,1-7,3.2c-5.12,0-8.53-4.05-8.53-9a8.94,8.94,0,0,1,8.53-9c4,0,7.47,3.42,6.19,7.68H875.2C874.56,263.53,876.48,267.16,881.17,267.16Zm1.92-10c.42-1.49-.21-3.84-3.41-3.84-1.92,0-3.63,1.5-4.27,3.84Z"/><path class="cls-7" d="M446.47,233.46c0,9.81-.43,14.08-2.78,18.55C439,261.4,426.42,270.14,404,270.14c-17.7,0-30.08-4.9-36.9-14.07-4.27-6.19-5.55-9-5.55-23.89V155.39h29.22V229c0,10.45,3.2,17.28,13.44,17.28,10.45,0,13.23-5.76,13.23-16.86V155.6h29Z"/><path class="cls-7" d="M509.39,268.44V220.87H486.14v47.36h-29V155.6h29V197h23.25V155.6h29V268.44Z"/><path class="cls-7" d="M604.09,268.44l-19.83-39.25a149.49,149.49,0,0,1-8.75-21.12,211.77,211.77,0,0,1,1.71,28.59v31.78H549.49V155.6h27.73l20.47,38.61a170.67,170.67,0,0,1,9.39,21.54c-.85-6.61-1.07-17.7-1.07-25.17v-35h27.52V268.44Z"/><path class="cls-8" d="M313.58,177.57c-.64,5.34-2.56,8.75-1.07,16.21,2.35,12.8,10.67,12.16,10.88,25.81a.46.46,0,0,0,.43.43c.21,0,.21,0,.43-.21,4.26-6.4,6.82-14.93,7.25-24.32a39.75,39.75,0,0,0-15.15-32.42s-.21-.21,0-.21c0-.22.22-.22.22,0,14.5,9.59,21.54,25.38,18.13,42.23C332.56,216,327,224.93,318.91,230a28.86,28.86,0,0,1-9.6,4.06c-.21,0-.21.42,0,.64.64.21,1.28.64,1.92.85a.4.4,0,0,0,.64,0,61.58,61.58,0,0,1,23.47-8.53c3-.43,9.17-1.49,8.53-6-.43-1.71-.64-3.2-1.07-4.91s1.28-2.35,2.14-3c.85-1.49.21-2.56-1.07-3.41-.43-.21-.43-.64-.21-.64A2.22,2.22,0,0,0,346,206.8c-.64-1.5-2.56-3.84-.85-6,.85-1.28,1.28-1.49,3-1.92a2.26,2.26,0,0,0,1.5-3.41c-3.2-4.05-5.55-6.83-8.75-10.88-1.49-3,2.35-6.82-1.06-10.45-8.54-9-19.84-16.64-35.62-18.34a.45.45,0,0,0-.43.42c.64,3.63,3.2,6.19,5.54,8.32a15.06,15.06,0,0,1,4.27,13"/><path class="cls-8" d="M343.44,248.6a.41.41,0,0,0-.21-.64c-3.41-1.28-6.83-.21-10,.64a13.93,13.93,0,0,1-13.43-2.77c-4.06-3.2-6.19-6.61-13.44-9.17-12.16-4.27-15.79,3.2-27.73-3.42-.21-.21-.43,0-.43.22v.42a47.08,47.08,0,0,0,17.28,18.35c11.3,6.82,23.68,7.46,35.41,3h.21v.22c-15.57,7.89-32.63,6-45.22-5.34-8.32-7.46-13.22-16.63-13.44-26.23a28.38,28.38,0,0,1,1.28-10.45c0-.22-.21-.43-.42-.22a7.29,7.29,0,0,1-1.71,1.07c-.21.21-.43.43-.21.64,0,10-1.71,21.76-6.4,32.42a4.38,4.38,0,0,0,.85,4.27c1.28,1.28,2.35,1.06,3.84,1.7,1.49.43,1.92,2.56,2.35,3.42a1.92,1.92,0,0,0,2.13.64h.21a2.56,2.56,0,0,0,1.07,1.92c.43.21,2.77-.43,3.41.64,1.07,1.7,0,4.69,2.14,5.33,3.2,0,7.25-1.49,10.87-.85,3.84.64,6.4,3.62,10.24,4.9a14.5,14.5,0,0,0,7.89.64c11.74-2.13,24.11-8.74,33.49-21.33"/><path class="cls-8" d="M243.62,236.44c.21.22.43.22.85.22,2.77-2.35,3.63-6,4.27-9.17a14.77,14.77,0,0,1,9-10.46c4.9-1.92,8.74-2.13,14.5-7.25,9.81-8.53,5.12-15.36,16.64-22.4.42-.21.42-.42.42-.63s-.21-.22-.42-.22a45.67,45.67,0,0,0-24.32,6,39.81,39.81,0,0,0-20.26,29.44c0,.21,0,.21-.21.21a.21.21,0,0,1-.22-.21c.85-17.49,11.09-31.57,27.09-37.11,10.45-3.63,20.9-3.2,29.22,1.28a27,27,0,0,1,8.32,6.39c.21.22.43,0,.43-.21,0-.64-.22-1.49-.22-2.13,0-.22-.21-.43-.42-.64a61.35,61.35,0,0,1-19-16.21c-1.92-2.35-5.54-6.61-9.38-4.48a19.5,19.5,0,0,0-3,3c-1.06,1.28-3.41.86-4.26.22a2.64,2.64,0,0,0-2.78,3c0,.43-.42.64-.42.43-.86-1.28-3.42-1.49-4.27,0-.21,1.07-1.28,3.63-3.2,2.35-2.13-1.71-4.26-1.5-5.33.21a76.5,76.5,0,0,1-5.55,10.45c-2.13,2.77-8.74,5.12-9.81,8.75-2.77,11.94-3.62,24.31,2.35,39.24"/><path class="cls-7" d="M668.3,163.71c0,4.48-3.42,8.1-9.82,8.1h-4.05v6c0,4.9.64,5.76,4.48,5.76v1.06H646.54v-1.06c3.84,0,4.48-.86,4.48-5.76V162c0-4.9-.64-5.54-4.48-5.54v-1.07H658.7C664.88,155.39,668.3,159,668.3,163.71Zm-4.06,0c0-3.41-1.92-6.4-5.76-6.4h-4.05v12.8h4.05C662.54,170.11,664.24,167.12,664.24,163.71Z"/><path class="cls-7" d="M683,172.88a1.83,1.83,0,0,1-1.7-1.71,1.52,1.52,0,0,0-1.5-1.7c-1.06,0-3.62,1.7-3.62,5.76V178c0,4.91.64,5.76,3.62,5.76v1.07H669.36v-1.07c3,0,3.63-.85,3.63-5.76v-2.35c0-4.9-.64-5.54-3.63-5.54v-1.28l6.19-1.28c.21.42.64,2.56.85,3.41a5.85,5.85,0,0,1,4.91-3.41c2.56,0,3.62,1.7,3.62,3C684.72,171.6,684.29,172.88,683,172.88Z"/><path class="cls-7" d="M686.85,184.61v-1.06c3,0,3.63-.86,3.63-5.76v-2.35c0-4.91-.64-5.55-3.63-5.55v-1.06l6.83-1.28v10.24c0,4.9.64,5.76,3.63,5.76v1.06ZM692,162.86a2.3,2.3,0,0,1-2.13-2.14,2.14,2.14,0,0,1,2.13-2.13,2.14,2.14,0,1,1,0,4.27Z"/><path class="cls-7" d="M712.66,167.55c4.06,0,6,3.2,6,7.25v3c0,4.9.64,5.76,3.63,5.76v1.06H711.6v-1.06c3,0,3.62-.86,3.62-5.76V175c0-3.2-1.06-5.12-3.84-5.12-2.56,0-5.33,2.14-5.33,4.91V178c0,4.91.43,5.76,3.2,5.76v1.07H699v-1.07c3,0,3.63-.85,3.63-5.76v-2.35c0-4.9-.64-5.54-3.63-5.54v-1.28l6.19-1.28c.21.42.64,2.56.85,3.41A8.7,8.7,0,0,1,712.66,167.55Z"/><path class="cls-7" d="M726.31,176.93c0,3.84,1.71,6.4,5.55,6.4a7.21,7.21,0,0,0,4.91-2.13l.85,1.07a9.43,9.43,0,0,1-6.83,3.2c-5.12,0-8.1-3.63-8.1-8.54,0-5.76,4.48-9.38,8.1-9.38,3.84,0,5.55,1.7,5.55,3.41a2,2,0,0,1-2.13,2.13,1.74,1.74,0,0,1-1.71-1.92c0-1.7-.85-2.13-1.71-2.13C728.23,169,726.31,172.45,726.31,176.93Z"/><path class="cls-7" d="M748.5,183.33a8.34,8.34,0,0,0,5.12-2.13l.85,1.07a10.85,10.85,0,0,1-7,3.2c-5.12,0-8.53-4.06-8.53-9a8.93,8.93,0,0,1,8.53-9c4.05,0,7.47,3.41,6.19,7.68h-11.1C741.88,179.71,743.8,183.33,748.5,183.33Zm1.92-9.81c.42-1.49-.22-3.84-3.42-3.84-1.92,0-3.62,1.49-4.26,3.84Z"/><path class="cls-7" d="M763,185.47c-3.2,0-4.9-3.42-4.9,0h-.86v-7h.86c0,2.13,1.7,5.33,5.11,5.33a2.46,2.46,0,0,0,2.56-2.56c0-1.28-1.06-2.13-2.56-3l-2.56-1.49a5.31,5.31,0,0,1-3-4.91,4.69,4.69,0,0,1,4.69-4.48c3.41,0,4,2.56,4,0h1.07v5.55h-1.07a3.75,3.75,0,0,0-3.84-4,2.07,2.07,0,0,0-2.34,2.13c0,1.07.85,1.71,2.77,3l2.13,1.28c2.14,1.28,3.2,3,3.2,4.69A5.1,5.1,0,0,1,763,185.47Z"/><path class="cls-7" d="M776.87,185.47c-3.2,0-4.91-3.42-4.91,0h-.85v-7H772c0,2.13,1.71,5.33,5.12,5.33a2.47,2.47,0,0,0,2.56-2.56c0-1.28-1.07-2.13-2.56-3l-2.56-1.49a5.3,5.3,0,0,1-3-4.91,4.7,4.7,0,0,1,4.7-4.48c3.41,0,4,2.56,4,0h1.06v5.55h-1.06a3.75,3.75,0,0,0-3.84-4,2.08,2.08,0,0,0-2.35,2.13c0,1.07.86,1.71,2.78,3l2.13,1.28c2.13,1.28,3.2,3,3.2,4.69A5.11,5.11,0,0,1,776.87,185.47Z"/><path class="cls-7" d="M652.3,219.81c0,4.9.64,5.76,4.48,5.76v1.06H646.33v-1.28c3.84,0,4.48-.85,4.48-5.76V204c0-4.9-.64-5.54-4.48-5.54v-1.07h7.89L664,221.09l9.81-23.68h7.25v1.07c-3.84,0-4.47.85-4.47,5.54v15.79c0,4.9.63,5.76,4.47,5.76v1.06H668.72v-1.28c3.84,0,4.48-.85,4.48-5.76V204l-9.6,23.25h-1.06L652.3,202.53Z"/><path class="cls-7" d="M695.6,227.06a3.06,3.06,0,0,1-3.2-2.77c-2.35,2.13-3.84,3-5.76,3a3.8,3.8,0,0,1-4-4.05c0-4.05,4.48-6,9.81-6.83,0-3.62-.43-5.12-3-5.12a2.55,2.55,0,0,0-2.56,2.35,1.52,1.52,0,0,1-1.49,1.71,1.69,1.69,0,0,1-1.71-1.71c0-2.35,3-3.84,5.76-3.84,4.48,0,6.4,1.92,6.4,6.61v7.26c0,1.28.43,1.92,1.07,1.92a2.43,2.43,0,0,0,1.28-.64l.64.85A7.75,7.75,0,0,1,695.6,227.06Zm-3.2-9.39c-4.48,1.07-6.4,2.56-6.4,4.91a2.41,2.41,0,0,0,2.13,2.56c1.07,0,2.14-.43,4.27-2.35Z"/><path class="cls-7" d="M713.73,214.69A1.85,1.85,0,0,1,712,213a1.52,1.52,0,0,0-1.49-1.71c-1.07,0-3.63,1.71-3.63,5.76v2.78c0,4.9.64,5.76,3.63,5.76v1.06H700.08v-1.28c3,0,3.62-.85,3.62-5.76v-2.34c0-4.91-.64-5.55-3.62-5.55v-1.07l6.18-1.28c.22.43.64,2.56.86,3.42a5.85,5.85,0,0,1,4.9-3.42c2.56,0,3.63,1.71,3.63,3S715.22,214.69,713.73,214.69Z"/><path class="cls-7" d="M724.82,226.63c6.4.64,8.32,3.41,8.32,6.4,0,4.05-3.63,6.4-8.11,6.4-7.89,0-10.87-6-5.12-9.17l.86.64c-3.84,4.48.64,6.61,4.26,6.61,2.78,0,5.76-1.49,5.76-3.84s-2.34-3-6.18-3.41-6.61-1.71-6.61-4.48c0-1.71,1.49-3.2,3.83-3.84a6.35,6.35,0,0,1-3.83-6,6.69,6.69,0,0,1,6.82-6.62,6.27,6.27,0,0,1,4.69,1.92,5.67,5.67,0,0,1,3.42-1.92c3.2,0,3.41,4.06,1.49,4.06-2.13.21-.85-2.14-2.77-2.14-.43,0-.86.22-1.5.86a6.33,6.33,0,0,1,1.28,3.84,6.88,6.88,0,0,1-6,6.61c-2.13.21-5.12.64-5.12,2.13C720.55,226,723.33,226.42,724.82,226.63Zm0-15.57c-2.35,0-3.41,2.13-3.41,5.12,0,2.77,1.06,4.91,3.41,4.91s3.41-2.14,3.41-4.91C728.23,213.19,727.17,211.06,724.82,211.06Z"/><path class="cls-7" d="M750.42,227.06a3.06,3.06,0,0,1-3.2-2.77c-2.35,2.13-3.84,3-5.76,3a3.8,3.8,0,0,1-4.05-4.05c0-4.05,4.47-6,9.81-6.83,0-3.62-.43-5.12-3-5.12a2.55,2.55,0,0,0-2.56,2.35,1.52,1.52,0,0,1-1.49,1.71,1.68,1.68,0,0,1-1.71-1.71c0-2.35,3-3.84,5.76-3.84,4.48,0,6.4,1.92,6.4,6.61v7.26c0,1.28.43,1.92,1.07,1.92a2.51,2.51,0,0,0,1.28-.64l.64.85A7.75,7.75,0,0,1,750.42,227.06Zm-3.2-9.39c-4.48,1.07-6.4,2.56-6.4,4.91a2.4,2.4,0,0,0,2.13,2.56c1.07,0,2.13-.43,4.27-2.35Z"/><path class="cls-7" d="M768.55,214.69a1.84,1.84,0,0,1-1.71-1.71,1.52,1.52,0,0,0-1.49-1.71c-1.07,0-3.63,1.71-3.63,5.76v2.78c0,4.9.64,5.76,3.63,5.76v1.06H754.9v-1.28c3,0,3.62-.85,3.62-5.76v-2.34c0-4.91-.64-5.55-3.62-5.55v-1.07l6.18-1.28c.21.43.64,2.56.85,3.42a5.88,5.88,0,0,1,4.91-3.42c2.56,0,3.63,1.71,3.63,3C770.25,213.62,769.83,214.69,768.55,214.69Z"/><path class="cls-7" d="M781.56,225.14a8.34,8.34,0,0,0,5.12-2.13l.85,1.06a10.8,10.8,0,0,1-7,3.2c-5.12,0-8.53-4.05-8.53-9a8.94,8.94,0,0,1,8.53-9c4,0,7.47,3.42,6.19,7.68H775.59C775,221.73,776.65,225.14,781.56,225.14Zm1.92-9.81c.42-1.5-.22-3.84-3.42-3.84-1.91,0-3.62,1.49-4.26,3.84Z"/><path class="cls-7" d="M788.6,211.91v-1.06c2.77-.64,3.84-2.78,4-6h1.49v5.33h4.06v1.7h-4.06v9.82c0,2.34.64,3.62,2.14,3.62a4.85,4.85,0,0,0,3-1.7l.86.85a6.9,6.9,0,0,1-4.91,2.77c-2.56,0-4.27-1.7-4.27-5.54v-9.82Z"/><path class="cls-7" d="M672.14,267.8a6.7,6.7,0,0,0-1.5-2.77,11.58,11.58,0,0,1-8.53,4.05c-7.89,0-14.08-7-14.08-15.36,0-8.53,6.4-15.36,14.08-15.36a11.59,11.59,0,0,1,8.53,4.06,4.38,4.38,0,0,0,1.5-2.78H673v10.67h-.85c-1.28-6.4-4.91-10.24-10-10.24-7.46,0-10,7.47-10,13.44s2.77,13.44,10,13.44c5.12,0,8.75-3.84,10-10H673v10.67h-.85Z"/><path class="cls-7" d="M689,268.87a3.06,3.06,0,0,1-3.2-2.78c-2.35,2.14-3.84,3-5.76,3a3.8,3.8,0,0,1-4-4.05c0-4.06,4.47-6,9.81-6.83,0-3.63-.43-5.12-3-5.12a2.54,2.54,0,0,0-2.56,2.35,1.52,1.52,0,0,1-1.49,1.7,1.68,1.68,0,0,1-1.71-1.7c0-2.35,3-3.84,5.76-3.84,4.48,0,6.4,1.92,6.4,6.61v7.25c0,1.28.43,1.92,1.07,1.92a2.43,2.43,0,0,0,1.28-.64l.64.86A5.16,5.16,0,0,1,689,268.87Zm-3.2-9.39c-4.48,1.07-6.4,2.77-6.4,4.91a2.4,2.4,0,0,0,2.13,2.56c1.07,0,2.13-.43,4.27-2.35Z"/><path class="cls-7" d="M706.05,251.37c4.05,0,6,3.2,6,7.26v3c0,4.91.64,5.76,3.63,5.76v1.07H705.2v-1.07c3,0,3.62-.85,3.62-5.76v-2.77c0-3.2-1.06-5.12-3.84-5.12-2.56,0-5.33,2.13-5.33,4.91v3c0,4.91.43,5.76,3.2,5.76v1.07H692.61v-1.07c3,0,3.63-.85,3.63-5.76v-2.34c0-4.91-.64-5.55-3.63-5.55v-1.07l6.19-1.28c.21.43.64,2.56.85,3.42A7.88,7.88,0,0,1,706.05,251.37Z"/><path class="cls-7" d="M719.7,260.76c0,3.84,1.71,6.4,5.55,6.4a7.17,7.17,0,0,0,4.9-2.13l.86,1.06a9.43,9.43,0,0,1-6.83,3.2c-5.12,0-8.1-3.62-8.1-8.53,0-5.76,4.47-9.39,8.1-9.39,3.84,0,5.55,1.71,5.55,3.42a2,2,0,0,1-2.14,2.13,1.74,1.74,0,0,1-1.7-1.92c0-1.71-.86-2.13-1.71-2.13C721.62,252.87,719.7,256.28,719.7,260.76Z"/><path class="cls-7" d="M741.88,267.16A8.32,8.32,0,0,0,747,265l.86.85a10.8,10.8,0,0,1-7,3.2c-5.12,0-8.53-4.05-8.53-9a8.93,8.93,0,0,1,8.53-9c4,0,7.46,3.41,6.18,7.68H735.91C735.27,263.53,737.19,267.16,741.88,267.16Zm1.92-10c.43-1.49-.21-3.84-3.41-3.84-1.92,0-3.62,1.5-4.26,3.84Z"/><path class="cls-7" d="M762.79,256.71a1.84,1.84,0,0,1-1.71-1.71,1.52,1.52,0,0,0-1.49-1.71c-1.07,0-3.63,1.71-3.63,5.76v2.56c0,4.91.64,5.76,3.63,5.76v1.07H749.14v-1.07c3,0,3.62-.85,3.62-5.76v-2.34c0-4.91-.64-5.55-3.62-5.55v-1.07l6.18-1.28c.22.43.64,2.56.86,3.42a5.85,5.85,0,0,1,4.9-3.42c2.56,0,3.63,1.71,3.63,3C764.71,255.43,764.28,256.71,762.79,256.71Z"/><path class="cls-7" d="M799.48,267.8A6.7,6.7,0,0,0,798,265a11.58,11.58,0,0,1-8.53,4.05c-7.89,0-14.08-7-14.08-15.36,0-8.53,6.4-15.36,14.08-15.36a11.59,11.59,0,0,1,8.53,4.06,4.38,4.38,0,0,0,1.5-2.78h.85v10.67h-.85c-1.28-6.4-4.91-10.24-10-10.24-7.47,0-10,7.47-10,13.44s2.77,13.44,10,13.44c5.12,0,8.75-3.84,10-10h.85v10.67h-.85Z"/><path class="cls-7" d="M812.91,267.16A8.32,8.32,0,0,0,818,265l.86,1.06a10.8,10.8,0,0,1-7,3.2c-5.12,0-8.54-4.05-8.54-9a8.94,8.94,0,0,1,8.54-9c4,0,7.46,3.42,6.18,7.68H806.94C806.3,263.53,808,267.16,812.91,267.16Zm1.92-10c.43-1.49-.21-3.84-3.41-3.84-1.92,0-3.63,1.5-4.27,3.84Z"/><path class="cls-7" d="M833.6,251.37c4.06,0,6,3.2,6,7.26v3c0,4.91.64,5.76,3.62,5.76v1.07H832.75v-1.07c3,0,3.63-.85,3.63-5.76v-2.77c0-3.2-1.07-5.12-3.84-5.12-2.56,0-5.34,2.13-5.34,4.91v3c0,4.91.43,5.76,3.2,5.76v1.07h-10v-1.07c3,0,3.62-.85,3.62-5.76v-2.34c0-4.91-.64-5.55-3.62-5.55v-1.07l6.18-1.28c.22.43.64,2.56.86,3.42A7.77,7.77,0,0,1,833.6,251.37Z"/><path class="cls-7" d="M842.56,253.93v-1.06c2.77-.64,3.84-2.78,4.05-6h1.5v5.33h4v1.7h-4v9.82c0,2.34.64,3.62,2.13,3.62a4.89,4.89,0,0,0,3-1.7l.85.85a6.89,6.89,0,0,1-4.91,2.77c-2.56,0-4.26-1.7-4.26-5.54v-9.82Z"/><path class="cls-7" d="M868.8,256.71a1.84,1.84,0,0,1-1.71-1.71,1.52,1.52,0,0,0-1.49-1.71c-1.07,0-3.63,1.71-3.63,5.76v2.56c0,4.91.64,5.76,3.63,5.76v1.07H855.15v-1.07c3,0,3.62-.85,3.62-5.76v-2.34c0-4.91-.64-5.55-3.62-5.55v-1.07l6.18-1.28c.22.43.64,2.56.86,3.42a5.85,5.85,0,0,1,4.9-3.42c2.56,0,3.63,1.71,3.63,3C870.5,255.43,870.08,256.71,868.8,256.71Z"/><path class="cls-7" d="M881.17,267.16a8.34,8.34,0,0,0,5.12-2.13l.85,1.06a10.8,10.8,0,0,1-7,3.2c-5.12,0-8.53-4.05-8.53-9a8.94,8.94,0,0,1,8.53-9c4,0,7.47,3.42,6.19,7.68H875.2C874.56,263.53,876.48,267.16,881.17,267.16Zm1.92-10c.42-1.49-.21-3.84-3.41-3.84-1.92,0-3.63,1.5-4.27,3.84Z"/><path class="cls-9" d="M276,36h-14.2a11.18,11.18,0,0,0-10.3,8.37L239.36,97.11c-1.06,4.62,1.82,8.38,6.47,8.38h10.7c3.66-18.31,15.51-30,27.14-39.56C277.2,56,273,46.22,276,36Zm32.49,0h-8.14a10.88,10.88,0,0,1-.81,5.61c-1.68,4.11-5.1,6.6-7.64,5.56s-3.26-5.21-1.58-9.32a12.47,12.47,0,0,1,.94-1.86H279.08c-1,7.58,4.69,15.21,11.75,24.22C301.33,52,309.73,45.14,308.5,36Z"/><path class="cls-10" d="M288.82,73.4l-2.22,1.88C272.54,87.19,258,99.46,257.37,118.46h45.9a10.29,10.29,0,0,0,6.11-2.17c.39-14.08-8.92-26.87-18-39.31Zm30.44-24.34h-9.79c-2.24,6.29-6.93,11.85-12.6,17.21-2,1.9-4.13,3.78-6.31,5.65a19.18,19.18,0,0,1,7.28-2.57C306.38,81,314.12,94.82,312.43,113a10,10,0,0,0,1.13-2.84l12.15-52.74C326.78,52.8,323.89,49.06,319.26,49.06Z"/><path class="cls-9" d="M349.69,72.26c0,3.3-.09,6.6-.09,9.86V96.94c0,2.64,0,3.16.09,4.67h2.17a82.9,82.9,0,0,0,8.36-.28l.28.28c-.14,1.51-.14,1.89-.19,3.59l-.28.28H344.82l-.28-.24V97c0-3.92-.09-19.26-.33-24.64l.28-.29c2.17,0,2.69,0,4.82-.09Z"/><path class="cls-9" d="M379.05,82.92c3.07,3.16,3.21,8.41,3.21,10.63,0,1.88-.14,6-2.5,9a9.68,9.68,0,0,1-13.65,1,8.86,8.86,0,0,1-.77-.73c-2.6-3.08-2.69-7.75-2.69-9.68,0-1.7,0-6.85,3.07-10a9.25,9.25,0,0,1,7-2.73A8.51,8.51,0,0,1,379.05,82.92Zm-3.21,2.69a3.78,3.78,0,0,0-3.36-1.89c-4.3,0-4.91,5.58-4.91,9.21a23.21,23.21,0,0,0,.33,4.25c.72,4,2.41,5.44,4.63,5.44a3.67,3.67,0,0,0,3.5-2.17,14.81,14.81,0,0,0,1.36-6.9c0-2.41-.27-5.77-1.54-7.94Z"/><path class="cls-9" d="M399.78,105.25c.09-3.68.14-8.36.14-9.87,0-2.07,0-5.1-.09-6.84,0-1-.19-4.2-3.35-4.2-2,0-3.87,1.5-4.82,2.5,0,3.68,0,14.06.29,18.32l-.29.28c-2.16,0-2.59,0-4.48.09l-.29-.28c.09-2.17.2-5,.2-9.58s0-9.39-.34-14.06l.23-.29a41.77,41.77,0,0,0,4.58-.8l.29.28a21,21,0,0,0-.2,2.74c2.08-1.79,4.2-3.06,6.89-3.06a5.2,5.2,0,0,1,5.25,3.73c.7,1.83.7,3,.7,7v4c0,6.8,0,7.56.19,9.92l-.28.28c-2.13,0-2.5,0-4.44.09Z"/><path class="cls-9" d="M427.72,105.44c-1.89,0-2.45,0-4.2.09l-.28-.28v-2.08a7.7,7.7,0,0,1-5.95,2.69c-5,0-8-4.48-8-11.33,0-4.34,1.14-7.79,3-10,2.74-3.31,6.47-3.64,8.92-3.64h2.08c0-3.49,0-7.36-.28-10.52l.23-.28c2.13-.29,2.74-.43,4.58-.81l.28.28c-.14,4.25-.28,8.12-.28,24.11,0,7.41,0,8.26.14,11.42Zm-4.49-21.09a14.35,14.35,0,0,0-1.61-.09A6.62,6.62,0,0,0,415.83,87a13.22,13.22,0,0,0-1.7,7.17c0,1.56.19,4.44,1.42,6.24a4.2,4.2,0,0,0,3.53,1.88,5,5,0,0,0,4.11-2.24c.05-7.29.05-9.84.05-15.68Z"/><path class="cls-9" d="M449,82.92c3.06,3.16,3.21,8.41,3.21,10.63,0,1.88-.14,6-2.5,9a9.68,9.68,0,0,1-13.65,1,10,10,0,0,1-.75-.71c-2.59-3.08-2.69-7.75-2.69-9.68,0-1.7,0-6.85,3.06-10a9.25,9.25,0,0,1,7-2.73A8.5,8.5,0,0,1,449,82.92Zm-3.21,2.69a3.78,3.78,0,0,0-3.36-1.89c-4.3,0-4.91,5.58-4.91,9.21a23.21,23.21,0,0,0,.33,4.25c.71,4,2.41,5.44,4.63,5.44a3.67,3.67,0,0,0,3.5-2.17,14.73,14.73,0,0,0,1.32-6.89C447.31,91.14,447.07,87.78,445.8,85.61Z"/><path class="cls-9" d="M469.73,105.25c.09-3.68.14-8.36.14-9.87,0-2.07,0-5.1-.09-6.84,0-1-.19-4.2-3.35-4.2-2,0-3.87,1.5-4.82,2.5,0,3.68,0,14.06.29,18.32l-.29.28c-2.16,0-2.6,0-4.48.09l-.29-.28c.09-2.17.2-5,.2-9.58s0-9.39-.34-14.06l.24-.29a41.77,41.77,0,0,0,4.58-.8l.29.28a21,21,0,0,0-.2,2.74c2.08-1.79,4.2-3.06,6.89-3.06a5.2,5.2,0,0,1,5.25,3.73c.71,1.83.71,3,.71,7v4c0,6.8,0,7.56.19,9.92l-.28.28c-2.12,0-2.5,0-4.44.09Z"/><path class="cls-9" d="M505.18,105.25c0-2.55.09-5.15.09-7.7V89.34h-4.59c-2.88,0-3.91,0-7,.14V91c0,3.86.23,12.31.28,14.25l-.28.28c-2.08,0-2.55,0-4.77.09l-.28-.28c0-3,.09-6,.09-9,0-7.94,0-15.86-.33-23.83l.28-.24c2.17,0,2.69,0,4.77-.15l.28.29V85.58c2.36,0,8.59,0,11.66-.09-.09-6.38-.14-7.46-.33-13l.28-.24c1.94,0,2.55,0,4.81-.15l.28.29V80.6c0,8.22,0,16.43.34,24.64l-.29.28c-2.12,0-2.59,0-4.81.09Z"/><path class="cls-9" d="M520,93.55a11.74,11.74,0,0,0,.9,5.1,6.46,6.46,0,0,0,6.14,3.76,8,8,0,0,0,5.1-1.74l.33.14c-.14,1.55-.14,1.93-.23,3.44l-.24.38a7.67,7.67,0,0,1-1.94.81A15.81,15.81,0,0,1,526,106a9.61,9.61,0,0,1-8-3.44c-2.08-2.6-2.65-6-2.65-9.35,0-8.78,4.3-11.28,5.76-12a8.83,8.83,0,0,1,3.69-.75,8.34,8.34,0,0,1,3.58.75c4.67,2.22,5,7.75,4.86,12.06l-.33.28Zm8.69-3.17a13,13,0,0,0-.24-2.92c-.7-3.39-3-3.78-3.83-3.78a3.58,3.58,0,0,0-3.07,1.8,9.7,9.7,0,0,0-1.46,4.91Z"/><path class="cls-9" d="M548.89,103.64a8.34,8.34,0,0,1-5.62,2.17c-4.24,0-6.74-3.35-6.74-7.41,0-7.13,6.69-8.55,10.24-9.25l2.08-.37c0-2.6,0-4.91-4.16-4.91a9.41,9.41,0,0,0-5.8,1.79l-.34-.19c.15-1.41.15-1.75.2-3.3l.23-.33a17.59,17.59,0,0,1,6.94-1.42c1.64,0,5,.14,6.6,3,.9,1.65.86,3.36.81,7.08v4.91a95.73,95.73,0,0,0,.28,9.73l-.28.28c-2,0-2.31,0-4.11.09l-.28-.28Zm0-11.85c-3.11.66-3.87.8-5,1.37A4.87,4.87,0,0,0,541,98c0,3,2,4.29,3.87,4.29a5.85,5.85,0,0,0,4-1.83Z"/><path class="cls-9" d="M563.8,105.44a38.94,38.94,0,0,0-4.58.09l-.24-.28c0-3.12.09-6.56.09-11.33,0-5.62,0-11.24-.14-16.85-.09-3.64-.19-4.86-.33-6.66l.24-.28c2.12-.28,2.74-.43,4.62-.81l.28.28c0,2.5-.1,4.87-.1,9.35,0,2.74,0,19,.42,26.2Z"/><path class="cls-9" d="M578.19,84.44h-3.77v13c0,2.74,0,4.77,2.41,4.77a2.76,2.76,0,0,0,1.75-.52l.28.19c-.14,1.37-.14,1.65-.19,3.07l-.28.38a9,9,0,0,1-3.12.47c-3,0-4.81-1.33-5.33-4.16a31.92,31.92,0,0,1-.14-4.15V84.34l-2.59.1-.24-.28c.09-1.56.14-1.8.19-3l.24-.28a16.28,16.28,0,0,1,2.41.1c0-2.41,0-3.21-.09-5.85l.23-.28c1.89-.43,2.22-.53,4.35-1.14l.28.24c-.14,2.22-.14,3.45-.14,7a16.08,16.08,0,0,0,2.27-.09,10,10,0,0,1,1.64,0l.25.28c-.14,1.37-.14,1.89-.19,3Z"/><path class="cls-9" d="M586.69,105.44a34.26,34.26,0,0,0-4.53.09l-.24-.28c.19-7.27.24-14.78.24-22.1,0-4.2,0-8.49-.37-12.74l.23-.28c1.94-.28,2.5-.39,4.67-.81l.28.28c-.19,4.11-.19,6.75-.19,8.22v5.71a10.35,10.35,0,0,1,6.84-3,5.29,5.29,0,0,1,5.15,3.16c.81,1.7.81,3.36.85,7.7v3.91c0,6.56,0,7.13.19,9.87l-.24.28c-2.22,0-2.74,0-4.53.09l-.23-.28c.14-4.15.14-8.36.14-12.56s0-6.08-1-7.31a3.17,3.17,0,0,0-2.41-1c-2,0-4,1.65-4.77,2.5,0,6.13,0,12.22.19,18.36Z"/><path class="cls-9" d="M627.85,77.4a7.14,7.14,0,0,0-5.41-2.27c-3.25,0-5,2.08-5,4.82,0,2.5,1.33,3.72,4.49,5.85.66.48,1.42.9,2.08,1.37,3,2,5.81,4.2,5.81,9.2a10.63,10.63,0,0,1-2.12,6.52c-2,2.41-4.86,3.16-8,3.16a14.35,14.35,0,0,1-6.85-1.65l-.28-.47c.1-.71.14-1.36.19-2.08s.09-1.32.09-1.94l.42-.14a8,8,0,0,0,6.09,2.64,5.26,5.26,0,0,0,5.61-4.91,3.64,3.64,0,0,0,0-.66c0-2.92-1.79-4.44-4.38-6.23l-2.13-1.36c-3-2.08-5.86-4-5.86-8.87,0-2.22.81-8.88,9.44-8.88A13.38,13.38,0,0,1,628.37,73l.14.42c0,.71-.14,1.37-.19,2.08s0,1.17-.09,1.75Z"/><path class="cls-9" d="M649.33,101c-.09,1.32-.14,1.84-.24,3.54l-.28.39a12.3,12.3,0,0,1-4.86.94,10.52,10.52,0,0,1-4-.66c-2.69-1.09-6.33-4.44-6.33-11.66,0-7.75,3.87-13.13,10.58-13.13a11.31,11.31,0,0,1,4.58.94l.24.34c-.14,1.65-.19,1.93-.28,3.58l-.28.14A5.53,5.53,0,0,0,644.7,84c-5.18,0-6.19,5.61-6.19,9.35,0,1.41,0,8.87,6.52,8.87a6.65,6.65,0,0,0,4-1.36Z"/><path class="cls-9" d="M657.83,105.44a36.37,36.37,0,0,0-4.67.09l-.29-.28c.15-2.84.2-5.81.2-10.44,0-9.3-.2-11.61-.34-13.21l.29-.29a39.13,39.13,0,0,0,4.67-.75l.24.28c-.09,2.88-.14,5.53-.14,8.92,0,8.41.14,12,.28,15.39Zm-.29-31.14a38.75,38.75,0,0,0-4.29.57l-.34-.28V70.5l.34-.28c2-.19,2.5-.23,4.33-.53l.34.29a38.31,38.31,0,0,0,0,4Z"/><path class="cls-9" d="M667.18,93.55a11.59,11.59,0,0,0,.89,5.1,6.47,6.47,0,0,0,6.19,3.77,8,8,0,0,0,5.1-1.74l.33.14c-.14,1.55-.14,1.93-.24,3.44l-.24.38a7.6,7.6,0,0,1-1.93.81,15.81,15.81,0,0,1-4.11.52,9.59,9.59,0,0,1-8-3.44c-2.08-2.6-2.64-6-2.64-9.35,0-8.78,4.29-11.28,5.75-12a8.83,8.83,0,0,1,3.69-.75,8.34,8.34,0,0,1,3.58.75c4.67,2.22,5,7.75,4.86,12.06l-.33.28Zm8.68-3.17a13,13,0,0,0-.24-2.92c-.71-3.39-3-3.78-3.82-3.78a3.61,3.61,0,0,0-3.08,1.8,9.72,9.72,0,0,0-1.45,4.91Z"/><path class="cls-9" d="M697.67,105.25c.09-3.68.14-8.36.14-9.87,0-2.07,0-5.1-.09-6.84,0-1-.19-4.2-3.36-4.2-2,0-3.87,1.5-4.81,2.5,0,3.68,0,14.06.28,18.32l-.28.28c-2.17,0-2.6,0-4.48.09l-.28-.28c.09-2.17.19-5,.19-9.58s0-9.39-.33-14.06l.23-.29a41.77,41.77,0,0,0,4.58-.8l.28.28a22.94,22.94,0,0,0-.19,2.74c2.08-1.79,4.2-3.06,6.89-3.06a5.18,5.18,0,0,1,5.24,3.73c.72,1.83.72,3,.72,7v4c0,6.8,0,7.56.19,9.92l-.28.28c-2.13,0-2.5,0-4.44.09Z"/><path class="cls-9" d="M722.87,101c-.1,1.32-.14,1.84-.24,3.54l-.28.39a12.27,12.27,0,0,1-4.86.94,10.56,10.56,0,0,1-4-.66c-2.69-1.09-6.32-4.44-6.32-11.66,0-7.75,3.86-13.13,10.57-13.13a11.25,11.25,0,0,1,4.58.94l.24.34c-.14,1.65-.19,1.93-.28,3.58l-.28.14A5.53,5.53,0,0,0,718.29,84c-5.14,0-6.18,5.56-6.18,9.3,0,1.41,0,8.87,6.52,8.87a6.67,6.67,0,0,0,4-1.36Z"/><path class="cls-9" d="M730.24,93.55a11.59,11.59,0,0,0,.89,5.1,6.47,6.47,0,0,0,6.19,3.77,8.06,8.06,0,0,0,5.1-1.74l.33.14c-.14,1.55-.14,1.93-.24,3.44l-.23.38a7.67,7.67,0,0,1-1.94.81,15.81,15.81,0,0,1-4.11.52,9.61,9.61,0,0,1-8-3.44c-2.08-2.6-2.64-6-2.64-9.35,0-8.78,4.29-11.28,5.76-12a9,9,0,0,1,3.68-.75,8.34,8.34,0,0,1,3.58.75c4.67,2.22,5,7.75,4.86,12.06l-.33.28Zm8.7-3.17a13,13,0,0,0-.24-2.92c-.71-3.39-3-3.78-3.82-3.78a3.6,3.6,0,0,0-3.07,1.8,9.7,9.7,0,0,0-1.46,4.91Z"/><path class="cls-9" d="M747,100.77a8.28,8.28,0,0,0,5.19,2,3.73,3.73,0,0,0,4-3.43c0-.11,0-.23,0-.35,0-2.13-1.42-2.92-3.07-3.87l-1.36-.75c-2.88-1.66-5.19-3-5.19-6.85a7,7,0,0,1,1.88-5,8.64,8.64,0,0,1,6.14-2.13,14.7,14.7,0,0,1,5.33,1l.14.34c0,.57-.09,1.13-.09,1.74v1.75l-.33.09a7.12,7.12,0,0,0-4.58-1.7c-2.36,0-3.82,1.37-3.82,3.36s1.41,2.73,2.93,3.58l1.51.81c2.41,1.32,5.38,2.93,5.38,7.08a7.19,7.19,0,0,1-2.12,5.24,8.42,8.42,0,0,1-6.28,2.27,13.85,13.85,0,0,1-5.85-1.17l-.24-.43c0-.61.1-1.22.1-1.83V101Z"/><path class="cls-9" d="M794.1,99.91c-.14,1.94-.19,2.31-.24,4.15l-.19.38a14.28,14.28,0,0,1-6.84,1.56,12.77,12.77,0,0,1-10.3-4.39c-3.77-4.39-4-10-4-12.41,0-9.91,4.67-17.7,14.44-17.7a16.27,16.27,0,0,1,6.7,1.37l.19.37c0,.66-.14,1.33-.19,2s-.09,1.36-.14,2l-.38.19a8.33,8.33,0,0,0-5.76-2c-6.84,0-9.63,6.42-9.63,13.6,0,8.26,4.11,12.93,9.77,12.93a9.25,9.25,0,0,0,6.23-2.27Z"/><path class="cls-9" d="M801.21,93.55a11.73,11.73,0,0,0,.89,5.1,6.47,6.47,0,0,0,6.19,3.77,8,8,0,0,0,5.1-1.74l.33.14c-.14,1.55-.14,1.93-.24,3.44l-.23.38a7.52,7.52,0,0,1-1.94.81,15.79,15.79,0,0,1-4.1.52,9.61,9.61,0,0,1-8-3.45c-2.08-2.6-2.64-6-2.64-9.35,0-8.78,4.3-11.28,5.75-12a9,9,0,0,1,3.68-.75,8.38,8.38,0,0,1,3.59.75c4.67,2.22,5,7.75,4.86,12.06l-.33.28Zm8.69-3.17a13,13,0,0,0-.24-2.92c-.72-3.39-3-3.78-3.83-3.78a3.6,3.6,0,0,0-3.07,1.8,9.71,9.71,0,0,0-1.47,4.91Z"/><path class="cls-9" d="M831.72,105.25c.09-3.68.14-8.36.14-9.87,0-2.07,0-5.1-.09-6.84,0-1-.19-4.2-3.35-4.2-2,0-3.87,1.5-4.81,2.5,0,3.68,0,14.06.28,18.32l-.28.28c-2.17,0-2.6,0-4.48.09l-.28-.28c.09-2.17.19-5,.19-9.58s0-9.39-.33-14.06l.24-.29a42.19,42.19,0,0,0,4.58-.8l.28.28a21,21,0,0,0-.19,2.74c2.08-1.79,4.19-3.06,6.89-3.06a5.2,5.2,0,0,1,5.24,3.73c.71,1.83.71,3,.71,7v4c0,6.8,0,7.56.19,9.92l-.28.28c-2.13,0-2.5,0-4.44.09Z"/><path class="cls-9" d="M850.88,84.44h-3.77v13c0,2.74,0,4.77,2.41,4.77a2.71,2.71,0,0,0,1.74-.52l.29.19c-.14,1.37-.14,1.65-.19,3.07l-.29.38a8.87,8.87,0,0,1-3.11.47c-3,0-4.81-1.33-5.33-4.16a30.25,30.25,0,0,1-.14-4.15V84.34l-2.59.1-.23-.28c.09-1.56.14-1.8.19-3l.24-.28a16.35,16.35,0,0,1,2.41.1c0-2.41,0-3.21-.09-5.85l.23-.28c1.89-.43,2.22-.53,4.35-1.14l.28.24c-.14,2.22-.14,3.45-.14,7a16.15,16.15,0,0,0,2.27-.09,10,10,0,0,1,1.64,0l.24.28c-.14,1.37-.14,1.89-.19,3Z"/><path class="cls-9" d="M859.46,105.44a36.56,36.56,0,0,0-4.44.09l-.28-.28c.09-2.55.14-4.77.14-8.69a146.39,146.39,0,0,0-.44-15l.23-.29a24.54,24.54,0,0,0,4.58-.8l.33.28c0,1.46,0,2.88-.09,4.3.56-1.42,1.8-4.67,5.28-4.67a5.76,5.76,0,0,1,1.7.28l.19.33a39.17,39.17,0,0,0-.42,4.58l-.33.19a3.55,3.55,0,0,0-2.23-.79,3.85,3.85,0,0,0-2.55,1c-1.61,1.61-1.65,3.88-1.65,7.84,0,3.11.09,8.11.24,11.23Z"/><path class="cls-9" d="M873.87,93.55a11.6,11.6,0,0,0,.9,5.1,6.44,6.44,0,0,0,6.18,3.77,8.06,8.06,0,0,0,5.1-1.74l.34.14c-.15,1.55-.15,1.93-.25,3.44l-.24.38a7.38,7.38,0,0,1-1.94.81,15.73,15.73,0,0,1-4.1.52,9.61,9.61,0,0,1-8-3.44c-2.08-2.6-2.64-6-2.64-9.35,0-8.78,4.3-11.28,5.77-12a8.9,8.9,0,0,1,3.67-.75,8.38,8.38,0,0,1,3.59.75c4.67,2.22,5,7.75,4.86,12.06l-.33.28Zm8.69-3.17a13,13,0,0,0-.24-2.92c-.71-3.39-3-3.78-3.83-3.78a3.6,3.6,0,0,0-3.07,1.8A9.71,9.71,0,0,0,874,90.39Z"/><path class="cls-9" d="M349.69,72.26c0,3.3-.09,6.6-.09,9.86V96.94c0,2.64,0,3.16.09,4.67h2.17a82.9,82.9,0,0,0,8.36-.28l.28.28c-.14,1.51-.14,1.89-.19,3.59l-.28.28H344.82l-.28-.24V97c0-3.92-.09-19.26-.33-24.64l.28-.29c2.17,0,2.69,0,4.82-.09Z"/><path class="cls-9" d="M379.05,82.92c3.07,3.16,3.21,8.41,3.21,10.63,0,1.88-.14,6-2.5,9a9.68,9.68,0,0,1-13.65,1,8.86,8.86,0,0,1-.77-.73c-2.6-3.08-2.69-7.75-2.69-9.68,0-1.7,0-6.85,3.07-10a9.25,9.25,0,0,1,7-2.73A8.51,8.51,0,0,1,379.05,82.92Zm-3.21,2.69a3.78,3.78,0,0,0-3.36-1.89c-4.3,0-4.91,5.58-4.91,9.21a23.21,23.21,0,0,0,.33,4.25c.72,4,2.41,5.44,4.63,5.44a3.67,3.67,0,0,0,3.5-2.17,14.81,14.81,0,0,0,1.36-6.9c0-2.41-.27-5.77-1.54-7.94Z"/><path class="cls-9" d="M399.78,105.25c.09-3.68.14-8.36.14-9.87,0-2.07,0-5.1-.09-6.84,0-1-.19-4.2-3.35-4.2-2,0-3.87,1.5-4.82,2.5,0,3.68,0,14.06.29,18.32l-.29.28c-2.16,0-2.59,0-4.48.09l-.29-.28c.09-2.17.2-5,.2-9.58s0-9.39-.34-14.06l.23-.29a41.77,41.77,0,0,0,4.58-.8l.29.28a21,21,0,0,0-.2,2.74c2.08-1.79,4.2-3.06,6.89-3.06a5.2,5.2,0,0,1,5.25,3.73c.7,1.83.7,3,.7,7v4c0,6.8,0,7.56.19,9.92l-.28.28c-2.13,0-2.5,0-4.44.09Z"/><path class="cls-9" d="M427.72,105.44c-1.89,0-2.45,0-4.2.09l-.28-.28v-2.08a7.7,7.7,0,0,1-5.95,2.69c-5,0-8-4.48-8-11.33,0-4.34,1.14-7.79,3-10,2.74-3.31,6.47-3.64,8.92-3.64h2.08c0-3.49,0-7.36-.28-10.52l.23-.28c2.13-.29,2.74-.43,4.58-.81l.28.28c-.14,4.25-.28,8.12-.28,24.11,0,7.41,0,8.26.14,11.42Zm-4.49-21.09a14.35,14.35,0,0,0-1.61-.09A6.62,6.62,0,0,0,415.83,87a13.22,13.22,0,0,0-1.7,7.17c0,1.56.19,4.44,1.42,6.24a4.2,4.2,0,0,0,3.53,1.88,5,5,0,0,0,4.11-2.24c.05-7.29.05-9.84.05-15.68Z"/><path class="cls-9" d="M449,82.92c3.06,3.16,3.21,8.41,3.21,10.63,0,1.88-.14,6-2.5,9a9.68,9.68,0,0,1-13.65,1,10,10,0,0,1-.75-.71c-2.59-3.08-2.69-7.75-2.69-9.68,0-1.7,0-6.85,3.06-10a9.25,9.25,0,0,1,7-2.73A8.5,8.5,0,0,1,449,82.92Zm-3.21,2.69a3.78,3.78,0,0,0-3.36-1.89c-4.3,0-4.91,5.58-4.91,9.21a23.21,23.21,0,0,0,.33,4.25c.71,4,2.41,5.44,4.63,5.44a3.67,3.67,0,0,0,3.5-2.17,14.73,14.73,0,0,0,1.32-6.89C447.31,91.14,447.07,87.78,445.8,85.61Z"/><path class="cls-9" d="M469.73,105.25c.09-3.68.14-8.36.14-9.87,0-2.07,0-5.1-.09-6.84,0-1-.19-4.2-3.35-4.2-2,0-3.87,1.5-4.82,2.5,0,3.68,0,14.06.29,18.32l-.29.28c-2.16,0-2.6,0-4.48.09l-.29-.28c.09-2.17.2-5,.2-9.58s0-9.39-.34-14.06l.24-.29a41.77,41.77,0,0,0,4.58-.8l.29.28a21,21,0,0,0-.2,2.74c2.08-1.79,4.2-3.06,6.89-3.06a5.2,5.2,0,0,1,5.25,3.73c.71,1.83.71,3,.71,7v4c0,6.8,0,7.56.19,9.92l-.28.28c-2.12,0-2.5,0-4.44.09Z"/><path class="cls-9" d="M505.18,105.25c0-2.55.09-5.15.09-7.7V89.34h-4.59c-2.88,0-3.91,0-7,.14V91c0,3.86.23,12.31.28,14.25l-.28.28c-2.08,0-2.55,0-4.77.09l-.28-.28c0-3,.09-6,.09-9,0-7.94,0-15.86-.33-23.83l.28-.24c2.17,0,2.69,0,4.77-.15l.28.29V85.58c2.36,0,8.59,0,11.66-.09-.09-6.38-.14-7.46-.33-13l.28-.24c1.94,0,2.55,0,4.81-.15l.28.29V80.6c0,8.22,0,16.43.34,24.64l-.29.28c-2.12,0-2.59,0-4.81.09Z"/><path class="cls-9" d="M520,93.55a11.74,11.74,0,0,0,.9,5.1,6.46,6.46,0,0,0,6.14,3.76,8,8,0,0,0,5.1-1.74l.33.14c-.14,1.55-.14,1.93-.23,3.44l-.24.38a7.67,7.67,0,0,1-1.94.81A15.81,15.81,0,0,1,526,106a9.61,9.61,0,0,1-8-3.44c-2.08-2.6-2.65-6-2.65-9.35,0-8.78,4.3-11.28,5.76-12a8.83,8.83,0,0,1,3.69-.75,8.34,8.34,0,0,1,3.58.75c4.67,2.22,5,7.75,4.86,12.06l-.33.28Zm8.69-3.17a13,13,0,0,0-.24-2.92c-.7-3.39-3-3.78-3.83-3.78a3.58,3.58,0,0,0-3.07,1.8,9.7,9.7,0,0,0-1.46,4.91Z"/><path class="cls-9" d="M548.89,103.64a8.34,8.34,0,0,1-5.62,2.17c-4.24,0-6.74-3.35-6.74-7.41,0-7.13,6.69-8.55,10.24-9.25l2.08-.37c0-2.6,0-4.91-4.16-4.91a9.41,9.41,0,0,0-5.8,1.79l-.34-.19c.15-1.41.15-1.75.2-3.3l.23-.33a17.59,17.59,0,0,1,6.94-1.42c1.64,0,5,.14,6.6,3,.9,1.65.86,3.36.81,7.08v4.91a95.73,95.73,0,0,0,.28,9.73l-.28.28c-2,0-2.31,0-4.11.09l-.28-.28Zm0-11.85c-3.11.66-3.87.8-5,1.37A4.87,4.87,0,0,0,541,98c0,3,2,4.29,3.87,4.29a5.85,5.85,0,0,0,4-1.83Z"/><path class="cls-9" d="M563.8,105.44a38.94,38.94,0,0,0-4.58.09l-.24-.28c0-3.12.09-6.56.09-11.33,0-5.62,0-11.24-.14-16.85-.09-3.64-.19-4.86-.33-6.66l.24-.28c2.12-.28,2.74-.43,4.62-.81l.28.28c0,2.5-.1,4.87-.1,9.35,0,2.74,0,19,.42,26.2Z"/><path class="cls-9" d="M578.19,84.44h-3.77v13c0,2.74,0,4.77,2.41,4.77a2.76,2.76,0,0,0,1.75-.52l.28.19c-.14,1.37-.14,1.65-.19,3.07l-.28.38a9,9,0,0,1-3.12.47c-3,0-4.81-1.33-5.33-4.16a31.92,31.92,0,0,1-.14-4.15V84.34l-2.59.1-.24-.28c.09-1.56.14-1.8.19-3l.24-.28a16.28,16.28,0,0,1,2.41.1c0-2.41,0-3.21-.09-5.85l.23-.28c1.89-.43,2.22-.53,4.35-1.14l.28.24c-.14,2.22-.14,3.45-.14,7a16.08,16.08,0,0,0,2.27-.09,10,10,0,0,1,1.64,0l.25.28c-.14,1.37-.14,1.89-.19,3Z"/><path class="cls-9" d="M586.69,105.44a34.26,34.26,0,0,0-4.53.09l-.24-.28c.19-7.27.24-14.78.24-22.1,0-4.2,0-8.49-.37-12.74l.23-.28c1.94-.28,2.5-.39,4.67-.81l.28.28c-.19,4.11-.19,6.75-.19,8.22v5.71a10.35,10.35,0,0,1,6.84-3,5.29,5.29,0,0,1,5.15,3.16c.81,1.7.81,3.36.85,7.7v3.91c0,6.56,0,7.13.19,9.87l-.24.28c-2.22,0-2.74,0-4.53.09l-.23-.28c.14-4.15.14-8.36.14-12.56s0-6.08-1-7.31a3.17,3.17,0,0,0-2.41-1c-2,0-4,1.65-4.77,2.5,0,6.13,0,12.22.19,18.36Z"/><path class="cls-9" d="M627.85,77.4a7.14,7.14,0,0,0-5.41-2.27c-3.25,0-5,2.08-5,4.82,0,2.5,1.33,3.72,4.49,5.85.66.48,1.42.9,2.08,1.37,3,2,5.81,4.2,5.81,9.2a10.63,10.63,0,0,1-2.12,6.52c-2,2.41-4.86,3.16-8,3.16a14.35,14.35,0,0,1-6.85-1.65l-.28-.47c.1-.71.14-1.36.19-2.08s.09-1.32.09-1.94l.42-.14a8,8,0,0,0,6.09,2.64,5.26,5.26,0,0,0,5.61-4.91,3.64,3.64,0,0,0,0-.66c0-2.92-1.79-4.44-4.38-6.23l-2.13-1.36c-3-2.08-5.86-4-5.86-8.87,0-2.22.81-8.88,9.44-8.88A13.38,13.38,0,0,1,628.37,73l.14.42c0,.71-.14,1.37-.19,2.08s0,1.17-.09,1.75Z"/><path class="cls-9" d="M649.33,101c-.09,1.32-.14,1.84-.24,3.54l-.28.39a12.3,12.3,0,0,1-4.86.94,10.52,10.52,0,0,1-4-.66c-2.69-1.09-6.33-4.44-6.33-11.66,0-7.75,3.87-13.13,10.58-13.13a11.31,11.31,0,0,1,4.58.94l.24.34c-.14,1.65-.19,1.93-.28,3.58l-.28.14A5.53,5.53,0,0,0,644.7,84c-5.18,0-6.19,5.61-6.19,9.35,0,1.41,0,8.87,6.52,8.87a6.65,6.65,0,0,0,4-1.36Z"/><path class="cls-9" d="M657.83,105.44a36.37,36.37,0,0,0-4.67.09l-.29-.28c.15-2.84.2-5.81.2-10.44,0-9.3-.2-11.61-.34-13.21l.29-.29a39.13,39.13,0,0,0,4.67-.75l.24.28c-.09,2.88-.14,5.53-.14,8.92,0,8.41.14,12,.28,15.39Zm-.29-31.14a38.75,38.75,0,0,0-4.29.57l-.34-.28V70.5l.34-.28c2-.19,2.5-.23,4.33-.53l.34.29a38.31,38.31,0,0,0,0,4Z"/><path class="cls-9" d="M667.18,93.55a11.59,11.59,0,0,0,.89,5.1,6.47,6.47,0,0,0,6.19,3.77,8,8,0,0,0,5.1-1.74l.33.14c-.14,1.55-.14,1.93-.24,3.44l-.24.38a7.6,7.6,0,0,1-1.93.81,15.81,15.81,0,0,1-4.11.52,9.59,9.59,0,0,1-8-3.44c-2.08-2.6-2.64-6-2.64-9.35,0-8.78,4.29-11.28,5.75-12a8.83,8.83,0,0,1,3.69-.75,8.34,8.34,0,0,1,3.58.75c4.67,2.22,5,7.75,4.86,12.06l-.33.28Zm8.68-3.17a13,13,0,0,0-.24-2.92c-.71-3.39-3-3.78-3.82-3.78a3.61,3.61,0,0,0-3.08,1.8,9.72,9.72,0,0,0-1.45,4.91Z"/><path class="cls-9" d="M697.67,105.25c.09-3.68.14-8.36.14-9.87,0-2.07,0-5.1-.09-6.84,0-1-.19-4.2-3.36-4.2-2,0-3.87,1.5-4.81,2.5,0,3.68,0,14.06.28,18.32l-.28.28c-2.17,0-2.6,0-4.48.09l-.28-.28c.09-2.17.19-5,.19-9.58s0-9.39-.33-14.06l.23-.29a41.77,41.77,0,0,0,4.58-.8l.28.28a22.94,22.94,0,0,0-.19,2.74c2.08-1.79,4.2-3.06,6.89-3.06a5.18,5.18,0,0,1,5.24,3.73c.72,1.83.72,3,.72,7v4c0,6.8,0,7.56.19,9.92l-.28.28c-2.13,0-2.5,0-4.44.09Z"/><path class="cls-9" d="M722.87,101c-.1,1.32-.14,1.84-.24,3.54l-.28.39a12.27,12.27,0,0,1-4.86.94,10.56,10.56,0,0,1-4-.66c-2.69-1.09-6.32-4.44-6.32-11.66,0-7.75,3.86-13.13,10.57-13.13a11.25,11.25,0,0,1,4.58.94l.24.34c-.14,1.65-.19,1.93-.28,3.58l-.28.14A5.53,5.53,0,0,0,718.29,84c-5.14,0-6.18,5.56-6.18,9.3,0,1.41,0,8.87,6.52,8.87a6.67,6.67,0,0,0,4-1.36Z"/><path class="cls-9" d="M730.24,93.55a11.59,11.59,0,0,0,.89,5.1,6.47,6.47,0,0,0,6.19,3.77,8.06,8.06,0,0,0,5.1-1.74l.33.14c-.14,1.55-.14,1.93-.24,3.44l-.23.38a7.67,7.67,0,0,1-1.94.81,15.81,15.81,0,0,1-4.11.52,9.61,9.61,0,0,1-8-3.44c-2.08-2.6-2.64-6-2.64-9.35,0-8.78,4.29-11.28,5.76-12a9,9,0,0,1,3.68-.75,8.34,8.34,0,0,1,3.58.75c4.67,2.22,5,7.75,4.86,12.06l-.33.28Zm8.7-3.17a13,13,0,0,0-.24-2.92c-.71-3.39-3-3.78-3.82-3.78a3.6,3.6,0,0,0-3.07,1.8,9.7,9.7,0,0,0-1.46,4.91Z"/><path class="cls-9" d="M747,100.77a8.28,8.28,0,0,0,5.19,2,3.73,3.73,0,0,0,4-3.43c0-.11,0-.23,0-.35,0-2.13-1.42-2.92-3.07-3.87l-1.36-.75c-2.88-1.66-5.19-3-5.19-6.85a7,7,0,0,1,1.88-5,8.64,8.64,0,0,1,6.14-2.13,14.7,14.7,0,0,1,5.33,1l.14.34c0,.57-.09,1.13-.09,1.74v1.75l-.33.09a7.12,7.12,0,0,0-4.58-1.7c-2.36,0-3.82,1.37-3.82,3.36s1.41,2.73,2.93,3.58l1.51.81c2.41,1.32,5.38,2.93,5.38,7.08a7.19,7.19,0,0,1-2.12,5.24,8.42,8.42,0,0,1-6.28,2.27,13.85,13.85,0,0,1-5.85-1.17l-.24-.43c0-.61.1-1.22.1-1.83V101Z"/><path class="cls-9" d="M794.1,99.91c-.14,1.94-.19,2.31-.24,4.15l-.19.38a14.28,14.28,0,0,1-6.84,1.56,12.77,12.77,0,0,1-10.3-4.39c-3.77-4.39-4-10-4-12.41,0-9.91,4.67-17.7,14.44-17.7a16.27,16.27,0,0,1,6.7,1.37l.19.37c0,.66-.14,1.33-.19,2s-.09,1.36-.14,2l-.38.19a8.33,8.33,0,0,0-5.76-2c-6.84,0-9.63,6.42-9.63,13.6,0,8.26,4.11,12.93,9.77,12.93a9.25,9.25,0,0,0,6.23-2.27Z"/><path class="cls-9" d="M801.21,93.55a11.73,11.73,0,0,0,.89,5.1,6.47,6.47,0,0,0,6.19,3.77,8,8,0,0,0,5.1-1.74l.33.14c-.14,1.55-.14,1.93-.24,3.44l-.23.38a7.52,7.52,0,0,1-1.94.81,15.79,15.79,0,0,1-4.1.52,9.61,9.61,0,0,1-8-3.45c-2.08-2.6-2.64-6-2.64-9.35,0-8.78,4.3-11.28,5.75-12a9,9,0,0,1,3.68-.75,8.38,8.38,0,0,1,3.59.75c4.67,2.22,5,7.75,4.86,12.06l-.33.28Zm8.69-3.17a13,13,0,0,0-.24-2.92c-.72-3.39-3-3.78-3.83-3.78a3.6,3.6,0,0,0-3.07,1.8,9.71,9.71,0,0,0-1.47,4.91Z"/><path class="cls-9" d="M831.72,105.25c.09-3.68.14-8.36.14-9.87,0-2.07,0-5.1-.09-6.84,0-1-.19-4.2-3.35-4.2-2,0-3.87,1.5-4.81,2.5,0,3.68,0,14.06.28,18.32l-.28.28c-2.17,0-2.6,0-4.48.09l-.28-.28c.09-2.17.19-5,.19-9.58s0-9.39-.33-14.06l.24-.29a42.19,42.19,0,0,0,4.58-.8l.28.28a21,21,0,0,0-.19,2.74c2.08-1.79,4.19-3.06,6.89-3.06a5.2,5.2,0,0,1,5.24,3.73c.71,1.83.71,3,.71,7v4c0,6.8,0,7.56.19,9.92l-.28.28c-2.13,0-2.5,0-4.44.09Z"/><path class="cls-9" d="M850.88,84.44h-3.77v13c0,2.74,0,4.77,2.41,4.77a2.71,2.71,0,0,0,1.74-.52l.29.19c-.14,1.37-.14,1.65-.19,3.07l-.29.38a8.87,8.87,0,0,1-3.11.47c-3,0-4.81-1.33-5.33-4.16a30.25,30.25,0,0,1-.14-4.15V84.34l-2.59.1-.23-.28c.09-1.56.14-1.8.19-3l.24-.28a16.35,16.35,0,0,1,2.41.1c0-2.41,0-3.21-.09-5.85l.23-.28c1.89-.43,2.22-.53,4.35-1.14l.28.24c-.14,2.22-.14,3.45-.14,7a16.15,16.15,0,0,0,2.27-.09,10,10,0,0,1,1.64,0l.24.28c-.14,1.37-.14,1.89-.19,3Z"/><path class="cls-9" d="M859.46,105.44a36.56,36.56,0,0,0-4.44.09l-.28-.28c.09-2.55.14-4.77.14-8.69a146.39,146.39,0,0,0-.44-15l.23-.29a24.54,24.54,0,0,0,4.58-.8l.33.28c0,1.46,0,2.88-.09,4.3.56-1.42,1.8-4.67,5.28-4.67a5.76,5.76,0,0,1,1.7.28l.19.33a39.17,39.17,0,0,0-.42,4.58l-.33.19a3.55,3.55,0,0,0-2.23-.79,3.85,3.85,0,0,0-2.55,1c-1.61,1.61-1.65,3.88-1.65,7.84,0,3.11.09,8.11.24,11.23Z"/><path class="cls-9" d="M873.87,93.55a11.6,11.6,0,0,0,.9,5.1,6.44,6.44,0,0,0,6.18,3.77,8.06,8.06,0,0,0,5.1-1.74l.34.14c-.15,1.55-.15,1.93-.25,3.44l-.24.38a7.38,7.38,0,0,1-1.94.81,15.73,15.73,0,0,1-4.1.52,9.61,9.61,0,0,1-8-3.44c-2.08-2.6-2.64-6-2.64-9.35,0-8.78,4.3-11.28,5.77-12a8.9,8.9,0,0,1,3.67-.75,8.38,8.38,0,0,1,3.59.75c4.67,2.22,5,7.75,4.86,12.06l-.33.28Zm8.69-3.17a13,13,0,0,0-.24-2.92c-.71-3.39-3-3.78-3.83-3.78a3.6,3.6,0,0,0-3.07,1.8A9.71,9.71,0,0,0,874,90.39Z"/></svg>